<?xml version="1.0" encoding="UTF-8" standalone="no"?><svg xmlns="http://www.w3.org/2000/svg" xmlns:xlink="http://www.w3.org/1999/xlink" contentScriptType="application/ecmascript" contentStyleType="text/css" height="1301px" preserveAspectRatio="none" style="width:2625px;height:1301px;" version="1.1" viewBox="0 0 2625 1301" width="2625px" zoomAndPan="magnify"><defs><filter height="300%" id="f7hb6qq3gayu8" width="300%" x="-1" y="-1"><feGaussianBlur result="blurOut" stdDeviation="2.0"/><feColorMatrix in="blurOut" result="blurOut2" type="matrix" values="0 0 0 0 0 0 0 0 0 0 0 0 0 0 0 0 0 0 .4 0"/><feOffset dx="4.0" dy="4.0" in="blurOut2" result="blurOut3"/><feBlend in="SourceGraphic" in2="blurOut3" mode="normal"/></filter></defs><g><!--MD5=[4f50d5625c287680beb26c59d4052006]
cluster 14bf5aff_1425_4f7d_804e_3e617d35f229--><polygon fill="#323232" filter="url(#f7hb6qq3gayu8)" points="2125,1079.294,2189,1079.294,2196,1102.0939,2608,1102.0939,2608,1286.294,2125,1286.294,2125,1079.294" style="stroke:#B2B2B2;stroke-width:1.5;"/><line style="stroke:#B2B2B2;stroke-width:1.5;" x1="2125" x2="2196" y1="1102.0939" y2="1102.0939"/><text fill="#B2B2B2" font-family="sans-serif" font-size="14" font-weight="bold" lengthAdjust="spacing" textLength="58" x="2129" y="1094.2999">TEAM_C</text><!--MD5=[0ff2454a1efa4fcdf47d88ebcb14c710]
cluster 66fdf0fe_ebf0_4f38_a1c0_01f559895a86--><polygon fill="#4C4C4C" filter="url(#f7hb6qq3gayu8)" points="2157,1130.294,2249,1130.294,2256,1153.0939,2576,1153.0939,2576,1254.294,2157,1254.294,2157,1130.294" style="stroke:#CCCCCC;stroke-width:1.5;"/><line style="stroke:#CCCCCC;stroke-width:1.5;" x1="2157" x2="2256" y1="1153.0939" y2="1153.0939"/><text fill="#CCCCCC" font-family="sans-serif" font-size="14" font-weight="bold" lengthAdjust="spacing" textLength="86" x="2161" y="1145.2999">SomeClassC</text><!--MD5=[73972a8c2361dd80ae57b7290bf1a14d]
cluster 80d66976_1f59_4597_85b1_979d7bf177e7--><polygon fill="#323232" filter="url(#f7hb6qq3gayu8)" points="493,841.294,1031,841.294,1038,864.0939,1041,864.0939,1041,965.294,493,965.294,493,841.294" style="stroke:#B2B2B2;stroke-width:1.5;"/><line style="stroke:#B2B2B2;stroke-width:1.5;" x1="493" x2="1038" y1="864.0939" y2="864.0939"/><text fill="#B2B2B2" font-family="sans-serif" font-size="14" font-weight="bold" lengthAdjust="spacing" textLength="532" x="497" y="856.2999">ExampleClassWithoutOwnershipThatIsADependencyOfAClassWithOwnership</text><!--MD5=[0f65effe3d7541d1b84b5e4ce72fcce4]
cluster 4108a48d_3f42_443e_8d27_ade24f30e0b9--><polygon fill="#323232" filter="url(#f7hb6qq3gayu8)" points="16,841.294,172,841.294,179,864.0939,453,864.0939,453,965.294,16,965.294,16,841.294" style="stroke:#B2B2B2;stroke-width:1.5;"/><line style="stroke:#B2B2B2;stroke-width:1.5;" x1="16" x2="179" y1="864.0939" y2="864.0939"/><text fill="#B2B2B2" font-family="sans-serif" font-size="14" font-weight="bold" lengthAdjust="spacing" textLength="150" x="20" y="856.2999">IRRELEVANT_OWNER</text><!--MD5=[6d369e245e14abca1a0bd61d4f59aa04]
cluster 43a66c9e_9435_4697_be52_d90fa2480ed9--><polygon fill="#323232" filter="url(#f7hb6qq3gayu8)" points="523,6.294,587,6.294,594,29.0939,1522,29.0939,1522,637.294,523,637.294,523,6.294" style="stroke:#B2B2B2;stroke-width:1.5;"/><line style="stroke:#B2B2B2;stroke-width:1.5;" x1="523" x2="594" y1="29.0939" y2="29.0939"/><text fill="#B2B2B2" font-family="sans-serif" font-size="14" font-weight="bold" lengthAdjust="spacing" textLength="58" x="527" y="21.2999">TEAM_B</text><!--MD5=[9604bc73f0aa2f05b7965ee6d468bafb]
cluster 0fce1a17_059b_4910_9e2b_8a4d69edb010--><polygon fill="#4C4C4C" filter="url(#f7hb6qq3gayu8)" points="1035,65.294,1301,65.294,1308,88.0939,1474,88.0939,1474,189.294,1035,189.294,1035,65.294" style="stroke:#CCCCCC;stroke-width:1.5;"/><line style="stroke:#CCCCCC;stroke-width:1.5;" x1="1035" x2="1308" y1="88.0939" y2="88.0939"/><text fill="#CCCCCC" font-family="sans-serif" font-size="14" font-weight="bold" lengthAdjust="spacing" textLength="260" x="1039" y="80.2999">ClassWithMultipleMethodsOwnedByA</text><!--MD5=[672a228e70d73ac77cf9270cf7b1f897]
cluster 20048661_979f_465f_a076_48f375e6a1b4--><polygon fill="#4C4C4C" filter="url(#f7hb6qq3gayu8)" points="563,65.294,629,65.294,636,88.0939,995,88.0939,995,189.294,563,189.294,563,65.294" style="stroke:#CCCCCC;stroke-width:1.5;"/><line style="stroke:#CCCCCC;stroke-width:1.5;" x1="563" x2="636" y1="88.0939" y2="88.0939"/><text fill="#CCCCCC" font-family="sans-serif" font-size="14" font-weight="bold" lengthAdjust="spacing" textLength="60" x="567" y="80.2999">FacadeB</text><!--MD5=[d0692c70305d79f4d92e6097a537e54d]
cluster c38522c6_86ca_44b6_b2d3_0ff53fff694c--><polygon fill="#4C4C4C" filter="url(#f7hb6qq3gayu8)" points="930,473.294,996,473.294,1003,496.0939,1351,496.0939,1351,597.294,930,597.294,930,473.294" style="stroke:#CCCCCC;stroke-width:1.5;"/><line style="stroke:#CCCCCC;stroke-width:1.5;" x1="930" x2="1003" y1="496.0939" y2="496.0939"/><text fill="#CCCCCC" font-family="sans-serif" font-size="14" font-weight="bold" lengthAdjust="spacing" textLength="60" x="934" y="488.2999">ServiceB</text><!--MD5=[823d244eb2ccb73d1cb35bfa6488b52c]
cluster 4bd258fd_bb0b_4de0_aba8_099e6da6d9ae--><polygon fill="#323232" filter="url(#f7hb6qq3gayu8)" points="1081,841.294,1309,841.294,1316,864.0939,1522,864.0939,1522,965.294,1081,965.294,1081,841.294" style="stroke:#B2B2B2;stroke-width:1.5;"/><line style="stroke:#B2B2B2;stroke-width:1.5;" x1="1081" x2="1316" y1="864.0939" y2="864.0939"/><text fill="#B2B2B2" font-family="sans-serif" font-size="14" font-weight="bold" lengthAdjust="spacing" textLength="222" x="1085" y="856.2999">OWNER_WITH_ONLY_METHODS</text><!--MD5=[216f94730baeb714fa63eee020e9193e]
cluster 1c7e6a36_c2b3_4afb_94e6_884460e8611c--><polygon fill="#323232" filter="url(#f7hb6qq3gayu8)" points="1562,250.294,1626,250.294,1633,273.0939,2093,273.0939,2093,1294.294,1562,1294.294,1562,250.294" style="stroke:#B2B2B2;stroke-width:1.5;"/><line style="stroke:#B2B2B2;stroke-width:1.5;" x1="1562" x2="1633" y1="273.0939" y2="273.0939"/><text fill="#B2B2B2" font-family="sans-serif" font-size="14" font-weight="bold" lengthAdjust="spacing" textLength="58" x="1566" y="265.2999">TEAM_A</text><!--MD5=[761f2af7d013775b841c6fb082df0c0f]
cluster 0f7d6ac1_3d64_4640_8ff6_4052858b66cc--><polygon fill="#4C4C4C" filter="url(#f7hb6qq3gayu8)" points="1610,1130.294,1701,1130.294,1708,1153.0939,2039,1153.0939,2039,1254.294,1610,1254.294,1610,1130.294" style="stroke:#CCCCCC;stroke-width:1.5;"/><line style="stroke:#CCCCCC;stroke-width:1.5;" x1="1610" x2="1708" y1="1153.0939" y2="1153.0939"/><text fill="#CCCCCC" font-family="sans-serif" font-size="14" font-weight="bold" lengthAdjust="spacing" textLength="85" x="1614" y="1145.2999">RepositoryA</text><!--MD5=[abb20162b95c65e7fb9522541a1cde40]
cluster 698b3f10_983d_4d11_adc8_4456d73962ad--><polygon fill="#4C4C4C" filter="url(#f7hb6qq3gayu8)" points="1614,309.294,1653,309.294,1660,332.0939,2053,332.0939,2053,433.294,1614,433.294,1614,309.294" style="stroke:#CCCCCC;stroke-width:1.5;"/><line style="stroke:#CCCCCC;stroke-width:1.5;" x1="1614" x2="1660" y1="332.0939" y2="332.0939"/><text fill="#CCCCCC" font-family="sans-serif" font-size="14" font-weight="bold" lengthAdjust="spacing" textLength="33" x="1618" y="324.2999">ApiA</text><!--MD5=[807e5bb78af6bad055803e517c2afdc3]
cluster 852fbc99_fb9c_48fe_bb14_31e15ade4b1b--><polygon fill="#4C4C4C" filter="url(#f7hb6qq3gayu8)" points="1610,677.294,1676,677.294,1683,700.0939,2040,700.0939,2040,801.294,1610,801.294,1610,677.294" style="stroke:#CCCCCC;stroke-width:1.5;"/><line style="stroke:#CCCCCC;stroke-width:1.5;" x1="1610" x2="1683" y1="700.0939" y2="700.0939"/><text fill="#CCCCCC" font-family="sans-serif" font-size="14" font-weight="bold" lengthAdjust="spacing" textLength="60" x="1614" y="692.2999">FacadeA</text><!--MD5=[a1ec0df9950addf137c61f45fe4920d8]
cluster e7761c39_3981_4a4b_8b04_1a39de12682d--><polygon fill="#4C4C4C" filter="url(#f7hb6qq3gayu8)" points="1610,841.294,1676,841.294,1683,864.0939,2053,864.0939,2053,965.294,1610,965.294,1610,841.294" style="stroke:#CCCCCC;stroke-width:1.5;"/><line style="stroke:#CCCCCC;stroke-width:1.5;" x1="1610" x2="1683" y1="864.0939" y2="864.0939"/><text fill="#CCCCCC" font-family="sans-serif" font-size="14" font-weight="bold" lengthAdjust="spacing" textLength="60" x="1614" y="856.2999">ServiceA</text><!--MD5=[0cea11db384a9e6385b726b66af546ae]
entity 66fdf0fe_ebf0_4f38_a1c0_01f559895a86_empty--><polygon fill="#4C4C4C" points="2200,1173.294,2246,1173.294,2253,1194.294,2552,1194.294,2552,1229.8938,2200,1229.8938,2200,1173.294" style="stroke:#4C4C4C;stroke-width:1.5;"/><line style="stroke:#4C4C4C;stroke-width:1.5;" x1="2200" x2="2253" y1="1194.294" y2="1194.294"/><text fill="#4C4C4C" font-family="sans-serif" font-size="14" lengthAdjust="spacing" textLength="310" x="2210" y="1214.2999">66fdf0fe_ebf0_4f38_a1c0_01f559895a86_empty</text><!--MD5=[179fbb96078af2cd735741839a5397ea]
entity 80d66976_1f59_4597_85b1_979d7bf177e7_empty--><polygon fill="#323232" points="647.5,884.294,693.5,884.294,700.5,905.294,1016.5,905.294,1016.5,940.8938,647.5,940.8938,647.5,884.294" style="stroke:#323232;stroke-width:1.5;"/><line style="stroke:#323232;stroke-width:1.5;" x1="647.5" x2="700.5" y1="905.294" y2="905.294"/><text fill="#323232" font-family="sans-serif" font-size="14" lengthAdjust="spacing" textLength="327" x="657.5" y="925.2999">80d66976_1f59_4597_85b1_979d7bf177e7_empty</text><!--MD5=[6031be7184f18a2144e69078e32eb054]
entity 4108a48d_3f42_443e_8d27_ade24f30e0b9_empty--><polygon fill="#323232" points="59.5,884.294,105.5,884.294,112.5,905.294,428.5,905.294,428.5,940.8938,59.5,940.8938,59.5,884.294" style="stroke:#323232;stroke-width:1.5;"/><line style="stroke:#323232;stroke-width:1.5;" x1="59.5" x2="112.5" y1="905.294" y2="905.294"/><text fill="#323232" font-family="sans-serif" font-size="14" lengthAdjust="spacing" textLength="327" x="69.5" y="925.2999">4108a48d_3f42_443e_8d27_ade24f30e0b9_empty</text><!--MD5=[a9e2e555576b3ef01ec3195ef3670520]
entity 0fce1a17_059b_4910_9e2b_8a4d69edb010_empty--><polygon fill="#4C4C4C" points="1078,108.294,1124,108.294,1131,129.294,1450,129.294,1450,164.8938,1078,164.8938,1078,108.294" style="stroke:#4C4C4C;stroke-width:1.5;"/><line style="stroke:#4C4C4C;stroke-width:1.5;" x1="1078" x2="1131" y1="129.294" y2="129.294"/><text fill="#4C4C4C" font-family="sans-serif" font-size="14" lengthAdjust="spacing" textLength="330" x="1088" y="149.2999">0fce1a17_059b_4910_9e2b_8a4d69edb010_empty</text><!--MD5=[29d995e549be1ac815492922ca988fa8]
entity 20048661_979f_465f_a076_48f375e6a1b4_empty--><polygon fill="#4C4C4C" points="606.5,108.294,652.5,108.294,659.5,129.294,971.5,129.294,971.5,164.8938,606.5,164.8938,606.5,108.294" style="stroke:#4C4C4C;stroke-width:1.5;"/><line style="stroke:#4C4C4C;stroke-width:1.5;" x1="606.5" x2="659.5" y1="129.294" y2="129.294"/><text fill="#4C4C4C" font-family="sans-serif" font-size="14" lengthAdjust="spacing" textLength="323" x="616.5" y="149.2999">20048661_979f_465f_a076_48f375e6a1b4_empty</text><!--MD5=[2c05c40b55ae9f997458a32badbda892]
entity c38522c6_86ca_44b6_b2d3_0ff53fff694c_empty--><polygon fill="#4C4C4C" points="973.5,516.294,1019.5,516.294,1026.5,537.294,1326.5,537.294,1326.5,572.8938,973.5,572.8938,973.5,516.294" style="stroke:#4C4C4C;stroke-width:1.5;"/><line style="stroke:#4C4C4C;stroke-width:1.5;" x1="973.5" x2="1026.5" y1="537.294" y2="537.294"/><text fill="#4C4C4C" font-family="sans-serif" font-size="14" lengthAdjust="spacing" textLength="311" x="983.5" y="557.2999">c38522c6_86ca_44b6_b2d3_0ff53fff694c_empty</text><!--MD5=[c64bc5cf08aacb67bf9075a86e756542]
entity 4bd258fd_bb0b_4de0_aba8_099e6da6d9ae_empty--><polygon fill="#323232" points="1124.5,884.294,1170.5,884.294,1177.5,905.294,1497.5,905.294,1497.5,940.8938,1124.5,940.8938,1124.5,884.294" style="stroke:#323232;stroke-width:1.5;"/><line style="stroke:#323232;stroke-width:1.5;" x1="1124.5" x2="1177.5" y1="905.294" y2="905.294"/><text fill="#323232" font-family="sans-serif" font-size="14" lengthAdjust="spacing" textLength="331" x="1134.5" y="925.2999">4bd258fd_bb0b_4de0_aba8_099e6da6d9ae_empty</text><!--MD5=[1a3be0ad9fbd46e86e4cae013854aea8]
entity 0f7d6ac1_3d64_4640_8ff6_4052858b66cc_empty--><polygon fill="#4C4C4C" points="1653,1173.294,1699,1173.294,1706,1194.294,2015,1194.294,2015,1229.8938,1653,1229.8938,1653,1173.294" style="stroke:#4C4C4C;stroke-width:1.5;"/><line style="stroke:#4C4C4C;stroke-width:1.5;" x1="1653" x2="1706" y1="1194.294" y2="1194.294"/><text fill="#4C4C4C" font-family="sans-serif" font-size="14" lengthAdjust="spacing" textLength="320" x="1663" y="1214.2999">0f7d6ac1_3d64_4640_8ff6_4052858b66cc_empty</text><!--MD5=[5d25480ab60ca89dff38d70bf14d0a7b]
entity 698b3f10_983d_4d11_adc8_4456d73962ad_empty--><polygon fill="#4C4C4C" points="1657,352.294,1703,352.294,1710,373.294,2029,373.294,2029,408.8938,1657,408.8938,1657,352.294" style="stroke:#4C4C4C;stroke-width:1.5;"/><line style="stroke:#4C4C4C;stroke-width:1.5;" x1="1657" x2="1710" y1="373.294" y2="373.294"/><text fill="#4C4C4C" font-family="sans-serif" font-size="14" lengthAdjust="spacing" textLength="330" x="1667" y="393.2999">698b3f10_983d_4d11_adc8_4456d73962ad_empty</text><!--MD5=[6319255d6ebff30230d4b1a21c2cfa24]
entity 852fbc99_fb9c_48fe_bb14_31e15ade4b1b_empty--><polygon fill="#4C4C4C" points="1653.5,720.294,1699.5,720.294,1706.5,741.294,2016.5,741.294,2016.5,776.8938,1653.5,776.8938,1653.5,720.294" style="stroke:#4C4C4C;stroke-width:1.5;"/><line style="stroke:#4C4C4C;stroke-width:1.5;" x1="1653.5" x2="1706.5" y1="741.294" y2="741.294"/><text fill="#4C4C4C" font-family="sans-serif" font-size="14" lengthAdjust="spacing" textLength="321" x="1663.5" y="761.2999">852fbc99_fb9c_48fe_bb14_31e15ade4b1b_empty</text><!--MD5=[b9fe5411529108073490fbcdfbad4401]
entity e7761c39_3981_4a4b_8b04_1a39de12682d_empty--><polygon fill="#4C4C4C" points="1653,884.294,1699,884.294,1706,905.294,2029,905.294,2029,940.8938,1653,940.8938,1653,884.294" style="stroke:#4C4C4C;stroke-width:1.5;"/><line style="stroke:#4C4C4C;stroke-width:1.5;" x1="1653" x2="1706" y1="905.294" y2="905.294"/><text fill="#4C4C4C" font-family="sans-serif" font-size="14" lengthAdjust="spacing" textLength="334" x="1663" y="925.2999">e7761c39_3981_4a4b_8b04_1a39de12682d_empty</text><!--MD5=[7172233d896708cfc7b0d3b398b745ac]
link 852fbc99_fb9c_48fe_bb14_31e15ade4b1b to 4bd258fd_bb0b_4de0_aba8_099e6da6d9ae--><path d="M1609.93,749.7859 C1609.6807,749.7863 1609.4259,749.7868 1609.1656,749.7874 C1608.1248,749.7898 1606.9972,749.7932 1605.7858,749.798 C1603.3631,749.8076 1600.6051,749.8227 1597.5347,749.8459 C1585.2534,749.9386 1567.9746,750.1597 1547.1648,750.6685 C1505.5453,751.6862 1449.8019,753.8546 1391.6663,758.4477 C1275.395,767.634 1149.555,786.519 1108,825.294 C1104.4588,828.5977 1101.5013,832.398 1099.0375,836.5227 C1098.4215,837.5539 1097.8364,838.6053 1097.2808,839.6743 C1097.003,840.2089 1096.7325,840.7478 1096.4692,841.2907 " fill="none" id="852fbc99_fb9c_48fe_bb14_31e15ade4b1b-to-4bd258fd_bb0b_4de0_aba8_099e6da6d9ae" style="stroke:#DB3287;stroke-width:1.0;stroke-dasharray:7.0,7.0;"/><polygon fill="#DB3287" points="1096.4692,841.2907,1103.9951,834.9377,1098.6507,836.7917,1096.7967,831.4473,1096.4692,841.2907" style="stroke:#DB3287;stroke-width:1.0;"/><!--MD5=[5d719198f5f2b70f525f9c92d505fecd]
link e7761c39_3981_4a4b_8b04_1a39de12682d to 43a66c9e_9435_4697_be52_d90fa2480ed9--><path d="M1624.671,841.0099 C1624.7386,840.8766 1624.8066,840.7436 1624.875,840.6109 C1625.149,840.0802 1625.4307,839.5542 1625.7204,839.0332 C1626.2998,837.9914 1626.9111,836.97 1627.5559,835.9719 C1630.1352,831.9793 1633.25,828.359 1637,825.294 C1658.86,807.434 2123.62,835.714 2145,817.294 C2237.67,737.464 2190,668.104 2190,545.794 C2190,379.794 2190,379.794 2190,379.794 C2190,310.344 2187.18,277.754 2133,234.294 C2079.125,191.079 1926.3625,166.9915 1786.0862,153.689 C1715.9481,147.0377 1648.9316,143.0827 1598.9583,140.7812 C1573.9716,139.6304 1553.2458,138.893 1538.521,138.4386 C1534.8398,138.325 1531.5337,138.229 1528.6298,138.1488 C1527.1779,138.1086 1525.8265,138.0724 1524.5791,138.0399 C1523.9554,138.0236 1523.3577,138.0082 1522.7864,137.9937 " fill="none" id="e7761c39_3981_4a4b_8b04_1a39de12682d-to-43a66c9e_9435_4697_be52_d90fa2480ed9" style="stroke:#3295DB;stroke-width:1.0;stroke-dasharray:7.0,7.0;"/><polygon fill="#3295DB" points="1522.7864,137.9937,1531.6821,142.2205,1527.7848,138.1204,1531.8849,134.2231,1522.7864,137.9937" style="stroke:#3295DB;stroke-width:1.0;"/><!--MD5=[6cff670630c294374c9d97f14a00ef07]
link c38522c6_86ca_44b6_b2d3_0ff53fff694c to 1c7e6a36_c2b3_4afb_94e6_884460e8611c--><path d="M945.3553,473.1662 C945.6207,472.6255 945.8933,472.0889 946.1734,471.5569 C946.7336,470.4929 947.3237,469.4469 947.9452,468.4218 C950.4311,464.3213 953.4188,460.554 957,457.294 C982.175,434.374 1133.2375,415.614 1279.0875,402.5277 C1352.0125,395.9846 1423.6344,390.8599 1477.5656,387.3429 C1504.5313,385.5844 1527.0742,384.2278 1543.1461,383.2967 C1547.1641,383.064 1550.7776,382.8578 1553.9547,382.6786 C1555.5432,382.589 1557.0226,382.5062 1558.3889,382.4301 C1559.0721,382.3921 1559.727,382.3557 1560.3531,382.3211 C1560.6661,382.3038 1560.972,382.2869 1561.2706,382.2704 " fill="none" id="c38522c6_86ca_44b6_b2d3_0ff53fff694c-to-1c7e6a36_c2b3_4afb_94e6_884460e8611c" style="stroke:#32C0DB;stroke-width:1.0;stroke-dasharray:7.0,7.0;"/><polygon fill="#32C0DB" points="1561.2706,382.2704,1552.064,378.772,1556.2782,382.5457,1552.5044,386.7599,1561.2706,382.2704" style="stroke:#32C0DB;stroke-width:1.0;"/><!--MD5=[f9b36c480e3158365d04fe78a962c8e7]
link c38522c6_86ca_44b6_b2d3_0ff53fff694c to 4108a48d_3f42_443e_8d27_ade24f30e0b9--><path d="M929.3529,545.5175 C924.3272,545.3876 917.1967,545.2487 908.1867,545.1873 C890.1668,545.0646 864.6288,545.2518 833.3758,546.4402 C770.8697,548.8171 685.5031,555.199 591.6988,571.1165 C404.09,602.9515 182.73,672.929 43,825.294 C39.7788,828.8065 37.0591,832.7366 34.7667,836.9318 C34.1936,837.9806 33.6472,839.0459 33.1264,840.1255 C32.9962,840.3953 32.8676,840.6661 32.7405,840.9377 " fill="none" id="c38522c6_86ca_44b6_b2d3_0ff53fff694c-to-4108a48d_3f42_443e_8d27_ade24f30e0b9" style="stroke:#32DB55;stroke-width:1.0;stroke-dasharray:7.0,7.0;"/><polygon fill="#32DB55" points="32.7405,840.9377,40.1767,834.4799,34.8588,836.4086,32.9301,831.0907,32.7405,840.9377" style="stroke:#32DB55;stroke-width:1.0;"/><!--MD5=[6c7b799b10a59b42cd4b6a6212f5173d]
link c38522c6_86ca_44b6_b2d3_0ff53fff694c to 852fbc99_fb9c_48fe_bb14_31e15ade4b1b--><path d="M934.9487,597.6135 C934.9784,597.9768 935.0095,598.3406 935.0419,598.7047 C935.1067,599.4331 935.177,600.1632 935.253,600.8946 C935.4049,602.3574 935.5797,603.8253 935.7792,605.2952 C936.5771,611.1745 937.771,617.0837 939.4848,622.8109 C942.9125,634.2652 948.42,644.9915 957,653.294 C1009.9,704.479 1172.9925,728.1365 1323.9263,738.9815 C1399.3931,744.404 1471.8203,746.6234 1525.9139,747.479 C1552.9607,747.9068 1575.4241,747.9937 1591.3924,747.9695 C1595.3844,747.9635 1598.9705,747.9505 1602.1209,747.9342 C1603.696,747.926 1605.1622,747.917 1606.5157,747.9077 C1607.1925,747.903 1607.841,747.8982 1608.461,747.8934 C1608.771,747.8909 1609.0738,747.8885 1609.3694,747.8861 " fill="none" id="c38522c6_86ca_44b6_b2d3_0ff53fff694c-to-852fbc99_fb9c_48fe_bb14_31e15ade4b1b" style="stroke:#6032DB;stroke-width:2.0;"/><polygon fill="#FFFFFF" points="1609.3694,747.8861,1590.3125,741.0424,1590.4275,755.0419,1609.3694,747.8861" style="stroke:#6032DB;stroke-width:2.0;"/><!--MD5=[4ff555138064ae05b467ba8b2966360a]
link e7761c39_3981_4a4b_8b04_1a39de12682d to 0f7d6ac1_3d64_4640_8ff6_4052858b66cc--><path d="M1618,966.3332 C1618,966.7714 1618,967.2116 1618,967.6536 C1618,968.5377 1618,969.4294 1618,970.3284 C1618,973.9243 1618,977.6373 1618,981.4504 C1618,989.0767 1618,997.1041 1618,1005.3988 C1618,1021.9881 1618,1039.6468 1618,1057.3052 C1618,1074.9637 1618,1092.6219 1618,1109.2103 C1618,1113.3574 1618,1117.4376 1618,1121.4343 C1618,1123.4326 1618,1125.4101 1618,1127.3645 C1618,1128.3418 1618,1129.3133 1618,1130.2787 " fill="none" id="e7761c39_3981_4a4b_8b04_1a39de12682d-to-0f7d6ac1_3d64_4640_8ff6_4052858b66cc" style="stroke:#DB6D32;stroke-width:2.0;"/><polygon fill="#FFFFFF" points="1618,1130.2787,1625,1111.2787,1611,1111.2787,1618,1130.2787" style="stroke:#DB6D32;stroke-width:2.0;"/><!--MD5=[d0452fdd7749517bf68efada5e31ad0b]
link 698b3f10_983d_4d11_adc8_4456d73962ad to 43a66c9e_9435_4697_be52_d90fa2480ed9--><path d="M1630.9698,308.7701 C1630.9729,308.5272 1630.9756,308.284 1630.978,308.0406 C1630.9877,307.067 1630.9922,306.0896 1630.9913,305.1087 C1630.9843,297.2616 1630.6327,289.1947 1629.8022,281.1207 C1628.1413,264.9727 1624.565,248.7965 1618,234.294 C1605.2,206.024 1579.805,182.2065 1557.315,165.3065 C1546.07,156.8565 1535.5513,150.1359 1527.6963,145.4527 C1525.7325,144.282 1523.9352,143.2385 1522.3347,142.3272 C1522.2347,142.2703 1522.1354,142.2138 1522.0369,142.1579 " fill="none" id="698b3f10_983d_4d11_adc8_4456d73962ad-to-43a66c9e_9435_4697_be52_d90fa2480ed9" style="stroke:#DB32A4;stroke-width:1.0;stroke-dasharray:7.0,7.0;"/><polygon fill="#DB32A4" points="1522.0369,142.1579,1527.8883,150.0802,1526.3849,144.6267,1531.8384,143.1234,1522.0369,142.1579" style="stroke:#DB32A4;stroke-width:1.0;"/><!--MD5=[85b809892129f5c8aa9f871d2f6e860c]
link 20048661_979f_465f_a076_48f375e6a1b4 to c38522c6_86ca_44b6_b2d3_0ff53fff694c--><path d="M583.2252,189.3049 C583.2702,189.4187 583.3154,189.5324 583.3606,189.6461 C584.0852,191.4652 584.8493,193.2695 585.6548,195.0471 C587.2658,198.6023 589.0425,202.0502 591,205.294 C646.22,296.809 732.05,380.8315 804.53,442.2727 C840.77,472.9934 873.6725,498.0687 897.7425,515.6126 C909.7775,524.3845 919.6044,531.2736 926.5363,536.0441 C927.4027,536.6404 928.224,537.2036 928.9987,537.7333 C929.1923,537.8657 929.3831,537.996 929.5709,538.1242 " fill="none" id="20048661_979f_465f_a076_48f375e6a1b4-to-c38522c6_86ca_44b6_b2d3_0ff53fff694c" style="stroke:#DB3236;stroke-width:2.0;"/><polygon fill="#FFFFFF" points="929.5709,538.1242,917.8247,521.631,909.9318,533.194,929.5709,538.1242" style="stroke:#DB3236;stroke-width:2.0;"/><!--MD5=[513e9b8ed9fd7c07d28a67905d5ca634]
link 852fbc99_fb9c_48fe_bb14_31e15ade4b1b to e7761c39_3981_4a4b_8b04_1a39de12682d--><path d="M1618,801.9665 C1618,811.2028 1618,821.0143 1618,830.8252 C1618,833.278 1618,835.7307 1618,838.1743 C1618,838.7853 1618,839.3956 1618,840.0053 C1618,840.3101 1618,840.6147 1618,840.9192 " fill="none" id="852fbc99_fb9c_48fe_bb14_31e15ade4b1b-to-e7761c39_3981_4a4b_8b04_1a39de12682d" style="stroke:#9932DB;stroke-width:2.0;"/><polygon fill="#FFFFFF" points="1618,840.9192,1625,821.9192,1611,821.9192,1618,840.9192" style="stroke:#9932DB;stroke-width:2.0;"/><!--MD5=[3e4c0f537fc72c8a466bcb553264f915]
link 698b3f10_983d_4d11_adc8_4456d73962ad to e7761c39_3981_4a4b_8b04_1a39de12682d--><path d="M1631.8131,433.5402 C1631.8605,433.6511 1631.9081,433.7618 1631.956,433.8725 C1632.0517,434.0939 1632.1484,434.3148 1632.246,434.5353 C1633.0268,436.2994 1633.867,438.0358 1634.7712,439.7308 C1636.5795,443.1209 1638.6438,446.3452 1641,449.294 C1764.4,603.724 1930.88,491.434 2032,661.294 C2067.47,720.874 2080.53,767.774 2032,817.294 C2016.64,832.974 1653.96,811.364 1637,825.294 C1633.2563,828.3677 1630.1461,831.9948 1627.5703,835.9924 C1626.9263,836.9918 1626.3158,838.0144 1625.7371,839.0572 C1625.4477,839.5787 1625.1663,840.1052 1624.8927,840.6364 C1624.8243,840.7692 1624.7564,840.9023 1624.689,841.0357 " fill="none" id="698b3f10_983d_4d11_adc8_4456d73962ad-to-e7761c39_3981_4a4b_8b04_1a39de12682d" style="stroke:#D432DB;stroke-width:2.0;"/><polygon fill="#FFFFFF" points="1624.689,841.0357,1639.5084,827.2377,1627.0143,820.9212,1624.689,841.0357" style="stroke:#D432DB;stroke-width:2.0;"/><!--MD5=[350b09450bcd3f071f8938856d548ada]
link 0fce1a17_059b_4910_9e2b_8a4d69edb010 to 1c7e6a36_c2b3_4afb_94e6_884460e8611c--><path d="M1051.7809,189.5285 C1051.8297,189.6377 1051.8788,189.7468 1051.9282,189.8557 C1052.1258,190.2915 1052.3276,190.7252 1052.5338,191.1567 C1053.3586,192.8824 1054.2533,194.5714 1055.2236,196.2087 C1057.1642,199.4834 1059.4075,202.5515 1062,205.294 C1143.345,291.369 1269.005,334.9865 1374.9913,357.089 C1427.9844,368.1402 1476.0591,373.8127 1511.2167,376.7243 C1528.7955,378.1801 1543.1451,378.9456 1553.2656,379.3482 C1555.7957,379.4488 1558.0615,379.5267 1560.0474,379.5871 C1560.5439,379.6022 1561.0228,379.6162 1561.4841,379.6292 " fill="none" id="0fce1a17_059b_4910_9e2b_8a4d69edb010-to-1c7e6a36_c2b3_4afb_94e6_884460e8611c" style="stroke:#3290DB;stroke-width:1.0;stroke-dasharray:7.0,7.0;"/><polygon fill="#3290DB" points="1561.4841,379.6292,1552.6001,375.3777,1556.486,379.4886,1552.3751,383.3745,1561.4841,379.6292" style="stroke:#3290DB;stroke-width:1.0;"/><!--MD5=[8d2b2e58896f3b443bba70bb4354ac96]
link e7761c39_3981_4a4b_8b04_1a39de12682d to 20048661_979f_465f_a076_48f375e6a1b4--><path d="M1624.6854,841.0285 C1624.7528,840.8952 1624.8208,840.7621 1624.8892,840.6293 C1625.1629,840.0982 1625.4443,839.5718 1625.7337,839.0506 C1626.3126,838.008 1626.9233,836.9857 1627.5674,835.9866 C1630.1439,831.9904 1633.255,828.3652 1637,825.294 C1655,810.534 2039.7,833.914 2056,817.294 C2146.75,724.794 2136.89,325.654 2045,234.294 C1987.7,177.334 655.25,254.274 591,205.294 C587.9862,202.9965 585.4091,200.2655 583.2069,197.2398 C582.1058,195.727 581.0985,194.1404 580.1773,192.4975 C579.7167,191.6761 579.2776,190.8406 578.859,189.9931 C578.7544,189.7812 578.651,189.5686 578.5489,189.3553 " fill="none" id="e7761c39_3981_4a4b_8b04_1a39de12682d-to-20048661_979f_465f_a076_48f375e6a1b4" style="stroke:#32DBC0;stroke-width:2.0;"/><polygon fill="#FFFFFF" points="578.5489,189.3553,580.4362,209.5156,593.0647,203.4724,578.5489,189.3553" style="stroke:#32DBC0;stroke-width:2.0;"/><!--MD5=[9d262711896e829d1a92b6802ac427ff]
link 852fbc99_fb9c_48fe_bb14_31e15ade4b1b to 80d66976_1f59_4597_85b1_979d7bf177e7--><path d="M1609.1596,749.8409 C1608.7744,749.8433 1608.3772,749.8458 1607.968,749.8484 C1607.1496,749.8536 1606.2833,749.8592 1605.37,749.8654 C1598.0631,749.9144 1587.7432,749.9939 1574.8215,750.1195 C1548.9781,750.3705 1512.7278,750.8059 1469.3613,751.5502 C1382.6281,753.039 1267.43,755.764 1150.0925,760.724 C915.4175,770.644 672.185,789.504 631,825.294 C627.3438,828.4715 624.2997,832.1766 621.7725,836.2315 C621.1407,837.2452 620.5412,838.2808 619.9725,839.3354 C619.6882,839.8628 619.4116,840.3949 619.1424,840.9314 " fill="none" id="852fbc99_fb9c_48fe_bb14_31e15ade4b1b-to-80d66976_1f59_4597_85b1_979d7bf177e7" style="stroke:#A632DB;stroke-width:2.0;"/><polygon fill="#FFFFFF" points="619.1424,840.9314,633.9182,827.0867,621.4043,820.8096,619.1424,840.9314" style="stroke:#A632DB;stroke-width:2.0;"/><!--MD5=[318270ce4a7e0e9d20ea5cf228c40d8c]
link e7761c39_3981_4a4b_8b04_1a39de12682d to 66fdf0fe_ebf0_4f38_a1c0_01f559895a86--><path d="M1626.0343,965.3284 C1626.0834,965.4368 1626.1328,965.545 1626.1825,965.6531 C1626.2819,965.8693 1626.3824,966.0849 1626.4841,966.2999 C1626.6874,966.7299 1626.8954,967.1574 1627.1082,967.5823 C1627.9593,969.2817 1628.8865,970.9382 1629.8963,972.536 C1631.9159,975.7316 1634.2663,978.6927 1637,981.294 C1767.14,1105.104 1873.06,985.744 2031,1071.294 C2066.845,1090.709 2099.8675,1122.384 2124.1625,1149.5465 C2136.31,1163.1277 2146.2756,1175.5809 2153.3213,1184.8093 C2154.202,1185.9629 2155.037,1187.066 2155.825,1188.1147 C2156.219,1188.6391 2156.6013,1189.1498 2156.9716,1189.6464 " fill="none" id="e7761c39_3981_4a4b_8b04_1a39de12682d-to-66fdf0fe_ebf0_4f38_a1c0_01f559895a86" style="stroke:#DBDB32;stroke-width:2.0;"/><polygon fill="#FFFFFF" points="2156.9716,1189.6464,2151.2255,1170.2303,2140.0022,1178.5992,2156.9716,1189.6464" style="stroke:#DBDB32;stroke-width:2.0;"/><!--MD5=[6b3d604dcf2479313d6e87dc425f9fca]
@startuml
hide stereotype
skinparam package {
FontColor<<n0>> #B2B2B2
BackgroundColor<<n0>> #323232
BorderColor<<n0>> #B2B2B2

FontColor<<n1>> #CCCCCC
BackgroundColor<<n1>> #4C4C4C
BorderColor<<n1>> #CCCCCC

FontColor<<n2>> #E5E5E5
BackgroundColor<<n2>> #666666
BorderColor<<n2>> #E5E5E5

FontColor<<n3>> #FFFFFF
BackgroundColor<<n3>> #7F7F7F
BorderColor<<n3>> #FFFFFF

FontColor<<n4>> #191919
BackgroundColor<<n4>> #999999
BorderColor<<n4>> #191919

FontColor<<n5>> #323232
BackgroundColor<<n5>> #B2B2B2
BorderColor<<n5>> #323232

FontColor<<n6>> #4C4C4C
BackgroundColor<<n6>> #CCCCCC
BorderColor<<n6>> #4C4C4C

FontColor<<n7>> #666666
BackgroundColor<<n7>> #E5E5E5
BorderColor<<n7>> #666666

FontColor<<n8>> #7F7F7F
BackgroundColor<<n8>> #FFFFFF
BorderColor<<n8>> #7F7F7F

}
skinparam folder {
shadowing false
FontColor<<n0>> #323232
BackgroundColor<<n0>> #323232
BorderColor<<n0>> #323232

FontColor<<n1>> #4C4C4C
BackgroundColor<<n1>> #4C4C4C
BorderColor<<n1>> #4C4C4C

FontColor<<n2>> #666666
BackgroundColor<<n2>> #666666
BorderColor<<n2>> #666666

FontColor<<n3>> #7F7F7F
BackgroundColor<<n3>> #7F7F7F
BorderColor<<n3>> #7F7F7F

FontColor<<n4>> #999999
BackgroundColor<<n4>> #999999
BorderColor<<n4>> #999999

FontColor<<n5>> #B2B2B2
BackgroundColor<<n5>> #B2B2B2
BorderColor<<n5>> #B2B2B2

FontColor<<n6>> #CCCCCC
BackgroundColor<<n6>> #CCCCCC
BorderColor<<n6>> #CCCCCC

FontColor<<n7>> #E5E5E5
BackgroundColor<<n7>> #E5E5E5
BorderColor<<n7>> #E5E5E5

FontColor<<n8>> #FFFFFF
BackgroundColor<<n8>> #FFFFFF
BorderColor<<n8>> #FFFFFF

}
package "TEAM_C" <<n0>> as 14bf5aff_1425_4f7d_804e_3e617d35f229 {
    package "SomeClassC" <<n1>> as 66fdf0fe_ebf0_4f38_a1c0_01f559895a86 {
        folder 66fdf0fe_ebf0_4f38_a1c0_01f559895a86_empty <<n1>> {
        }
    }
}

package "ExampleClassWithoutOwnershipThatIsADependencyOfAClassWithOwnership" <<n0>> as 80d66976_1f59_4597_85b1_979d7bf177e7 {
    folder 80d66976_1f59_4597_85b1_979d7bf177e7_empty <<n0>> {
    }
}

package "IRRELEVANT_OWNER" <<n0>> as 4108a48d_3f42_443e_8d27_ade24f30e0b9 {
    folder 4108a48d_3f42_443e_8d27_ade24f30e0b9_empty <<n0>> {
    }
}

package "TEAM_B" <<n0>> as 43a66c9e_9435_4697_be52_d90fa2480ed9 {
    package "ClassWithMultipleMethodsOwnedByA" <<n1>> as 0fce1a17_059b_4910_9e2b_8a4d69edb010 {
        folder 0fce1a17_059b_4910_9e2b_8a4d69edb010_empty <<n1>> {
        }
    }

    package "FacadeB" <<n1>> as 20048661_979f_465f_a076_48f375e6a1b4 {
        folder 20048661_979f_465f_a076_48f375e6a1b4_empty <<n1>> {
        }
    }

    package "ServiceB" <<n1>> as c38522c6_86ca_44b6_b2d3_0ff53fff694c {
        folder c38522c6_86ca_44b6_b2d3_0ff53fff694c_empty <<n1>> {
        }
    }
}

package "OWNER_WITH_ONLY_METHODS" <<n0>> as 4bd258fd_bb0b_4de0_aba8_099e6da6d9ae {
    folder 4bd258fd_bb0b_4de0_aba8_099e6da6d9ae_empty <<n0>> {
    }
}

package "TEAM_A" <<n0>> as 1c7e6a36_c2b3_4afb_94e6_884460e8611c {
    package "RepositoryA" <<n1>> as 0f7d6ac1_3d64_4640_8ff6_4052858b66cc {
        folder 0f7d6ac1_3d64_4640_8ff6_4052858b66cc_empty <<n1>> {
        }
    }

    package "ApiA" <<n1>> as 698b3f10_983d_4d11_adc8_4456d73962ad {
        folder 698b3f10_983d_4d11_adc8_4456d73962ad_empty <<n1>> {
        }
    }

    package "FacadeA" <<n1>> as 852fbc99_fb9c_48fe_bb14_31e15ade4b1b {
        folder 852fbc99_fb9c_48fe_bb14_31e15ade4b1b_empty <<n1>> {
        }
    }

    package "ServiceA" <<n1>> as e7761c39_3981_4a4b_8b04_1a39de12682d {
        folder e7761c39_3981_4a4b_8b04_1a39de12682d_empty <<n1>> {
        }
    }
}

852fbc99_fb9c_48fe_bb14_31e15ade4b1b .[#DB3287].> 4bd258fd_bb0b_4de0_aba8_099e6da6d9ae
e7761c39_3981_4a4b_8b04_1a39de12682d .[#3295DB]..> 43a66c9e_9435_4697_be52_d90fa2480ed9
c38522c6_86ca_44b6_b2d3_0ff53fff694c .[#32C0DB]...> 1c7e6a36_c2b3_4afb_94e6_884460e8611c
c38522c6_86ca_44b6_b2d3_0ff53fff694c .[#32DB55]..> 4108a48d_3f42_443e_8d27_ade24f30e0b9
c38522c6_86ca_44b6_b2d3_0ff53fff694c -[#6032DB,bold]-|> 852fbc99_fb9c_48fe_bb14_31e15ade4b1b
e7761c39_3981_4a4b_8b04_1a39de12682d -[#DB6D32,bold]- - -|> 0f7d6ac1_3d64_4640_8ff6_4052858b66cc
698b3f10_983d_4d11_adc8_4456d73962ad .[#DB32A4]...> 43a66c9e_9435_4697_be52_d90fa2480ed9
20048661_979f_465f_a076_48f375e6a1b4 -[#DB3236,bold]- - -|> c38522c6_86ca_44b6_b2d3_0ff53fff694c
852fbc99_fb9c_48fe_bb14_31e15ade4b1b -[#9932DB,bold]-|> e7761c39_3981_4a4b_8b04_1a39de12682d
698b3f10_983d_4d11_adc8_4456d73962ad -[#D432DB,bold]- - -|> e7761c39_3981_4a4b_8b04_1a39de12682d
0fce1a17_059b_4910_9e2b_8a4d69edb010 .[#3290DB]..> 1c7e6a36_c2b3_4afb_94e6_884460e8611c
e7761c39_3981_4a4b_8b04_1a39de12682d -[#32DBC0,bold]- - -|> 20048661_979f_465f_a076_48f375e6a1b4
852fbc99_fb9c_48fe_bb14_31e15ade4b1b -[#A632DB,bold]-|> 80d66976_1f59_4597_85b1_979d7bf177e7
e7761c39_3981_4a4b_8b04_1a39de12682d -[#DBDB32,bold]- - -|> 66fdf0fe_ebf0_4f38_a1c0_01f559895a86
@enduml

PlantUML version 1.2021.00(Sun Jan 10 11:25:05 CET 2021)
(GPL source distribution)
Java Runtime: OpenJDK Runtime Environment
JVM: OpenJDK 64-Bit Server VM
Default Encoding: UTF-8
Language: en
Country: US
--></g></svg>