<?xml version="1.0" encoding="UTF-8" standalone="no"?><svg xmlns="http://www.w3.org/2000/svg" xmlns:xlink="http://www.w3.org/1999/xlink" contentScriptType="application/ecmascript" contentStyleType="text/css" height="952px" preserveAspectRatio="none" style="width:1785px;height:952px;" version="1.1" viewBox="0 0 1785 952" width="1785px" zoomAndPan="magnify"><defs><filter height="300%" id="fm1z6qc" width="300%" x="-1" y="-1"><feGaussianBlur result="blurOut" stdDeviation="2.0"/><feColorMatrix in="blurOut" result="blurOut2" type="matrix" values="0 0 0 0 0 0 0 0 0 0 0 0 0 0 0 0 0 0 .4 0"/><feOffset dx="4.0" dy="4.0" in="blurOut2" result="blurOut3"/><feBlend in="SourceGraphic" in2="blurOut3" mode="normal"/></filter></defs><g><!--cluster 96759225_f744_4c8f_a4c6_6bf421184357--><polygon fill="#D3D3D3" filter="url(#fm1z6qc)" points="1268,758,1332,758,1339,780.7999,1775,780.7999,1775,945,1268,945,1268,758" style="stroke: #D3D3D3; stroke-width: 2.0;"/><line style="stroke: #D3D3D3; stroke-width: 2.0;" x1="1268" x2="1339" y1="780.7999" y2="780.7999"/><text fill="#000000" font-family="sans-serif" font-size="14" font-weight="bold" lengthAdjust="spacingAndGlyphs" textLength="58" x="1272" y="773.0059">TEAM_C</text><!--cluster 7d005490_471e_4d0b_a6f9_bff3a0005a36--><polygon fill="#A9A9A9" filter="url(#fm1z6qc)" points="1300,809,1392,809,1399,831.7999,1743,831.7999,1743,913,1300,913,1300,809" style="stroke: #A9A9A9; stroke-width: 2.0;"/><line style="stroke: #A9A9A9; stroke-width: 2.0;" x1="1300" x2="1399" y1="831.7999" y2="831.7999"/><text fill="#000000" font-family="sans-serif" font-size="14" font-weight="bold" lengthAdjust="spacingAndGlyphs" textLength="86" x="1304" y="824.0059">SomeClassC</text><!--cluster 88dc746e_8414_4d5d_b9f9_a6a6dff2bbf3--><polygon fill="#D3D3D3" filter="url(#fm1z6qc)" points="30,32,94,32,101,54.7999,616,54.7999,616,726,30,726,30,32" style="stroke: #D3D3D3; stroke-width: 2.0;"/><line style="stroke: #D3D3D3; stroke-width: 2.0;" x1="30" x2="101" y1="54.7999" y2="54.7999"/><text fill="#000000" font-family="sans-serif" font-size="14" font-weight="bold" lengthAdjust="spacingAndGlyphs" textLength="58" x="34" y="47.0059">TEAM_B</text><!--cluster ce98a80d_f5f6_431a_8055_ca0f4d9ff82e--><polygon fill="#A9A9A9" filter="url(#fm1z6qc)" points="102,582,168,582,175,604.7999,550,604.7999,550,686,102,686,102,582" style="stroke: #A9A9A9; stroke-width: 2.0;"/><line style="stroke: #A9A9A9; stroke-width: 2.0;" x1="102" x2="175" y1="604.7999" y2="604.7999"/><text fill="#000000" font-family="sans-serif" font-size="14" font-weight="bold" lengthAdjust="spacingAndGlyphs" textLength="60" x="106" y="597.0059">FacadeB</text><!--cluster f2e2e897_acda_454a_9717_a2e9b24f1f84--><polygon fill="#A9A9A9" filter="url(#fm1z6qc)" points="121,91,187,91,194,113.7999,553,113.7999,553,195,121,195,121,91" style="stroke: #A9A9A9; stroke-width: 2.0;"/><line style="stroke: #A9A9A9; stroke-width: 2.0;" x1="121" x2="194" y1="113.7999" y2="113.7999"/><text fill="#000000" font-family="sans-serif" font-size="14" font-weight="bold" lengthAdjust="spacingAndGlyphs" textLength="60" x="125" y="106.0059">ServiceB</text><!--cluster a56758bc_dd83_4dab_9602_a2bc1bf7ac62--><polygon fill="#A9A9A9" filter="url(#fm1z6qc)" points="120,438,386,438,393,460.7999,568,460.7999,568,542,120,542,120,438" style="stroke: #A9A9A9; stroke-width: 2.0;"/><line style="stroke: #A9A9A9; stroke-width: 2.0;" x1="120" x2="393" y1="460.7999" y2="460.7999"/><text fill="#000000" font-family="sans-serif" font-size="14" font-weight="bold" lengthAdjust="spacingAndGlyphs" textLength="260" x="124" y="453.0059">ClassWithMultipleMethodsOwnedByA</text><!--cluster 967cb245_776d_48b6_9d81_ba8301cc8740--><polygon fill="#D3D3D3" filter="url(#fm1z6qc)" points="656,235,720,235,727,257.7999,1657,257.7999,1657,726,656,726,656,235" style="stroke: #D3D3D3; stroke-width: 2.0;"/><line style="stroke: #D3D3D3; stroke-width: 2.0;" x1="656" x2="727" y1="257.7999" y2="257.7999"/><text fill="#000000" font-family="sans-serif" font-size="14" font-weight="bold" lengthAdjust="spacingAndGlyphs" textLength="58" x="660" y="250.0059">TEAM_A</text><!--cluster eece59ea_b8bf_4386_8fc9_dbb649aa5689--><polygon fill="#A9A9A9" filter="url(#fm1z6qc)" points="819,582,910,582,917,604.7999,1266,604.7999,1266,686,819,686,819,582" style="stroke: #A9A9A9; stroke-width: 2.0;"/><line style="stroke: #A9A9A9; stroke-width: 2.0;" x1="819" x2="917" y1="604.7999" y2="604.7999"/><text fill="#000000" font-family="sans-serif" font-size="14" font-weight="bold" lengthAdjust="spacingAndGlyphs" textLength="85" x="823" y="597.0059">RepositoryA</text><!--cluster 86c7e190_be99_40ee_b945_3699ac541f03--><polygon fill="#A9A9A9" filter="url(#fm1z6qc)" points="704,294,770,294,777,316.7999,1131,316.7999,1131,398,704,398,704,294" style="stroke: #A9A9A9; stroke-width: 2.0;"/><line style="stroke: #A9A9A9; stroke-width: 2.0;" x1="704" x2="777" y1="316.7999" y2="316.7999"/><text fill="#000000" font-family="sans-serif" font-size="14" font-weight="bold" lengthAdjust="spacingAndGlyphs" textLength="60" x="708" y="309.0059">FacadeA</text><!--cluster 668a8cfb_b56c_44ed_91e6_20d6834c7db5--><polygon fill="#A9A9A9" filter="url(#fm1z6qc)" points="1004,438,1070,438,1077,460.7999,1445,460.7999,1445,542,1004,542,1004,438" style="stroke: #A9A9A9; stroke-width: 2.0;"/><line style="stroke: #A9A9A9; stroke-width: 2.0;" x1="1004" x2="1077" y1="460.7999" y2="460.7999"/><text fill="#000000" font-family="sans-serif" font-size="14" font-weight="bold" lengthAdjust="spacingAndGlyphs" textLength="60" x="1008" y="453.0059">ServiceA</text><!--cluster 303a942c_ae22_4b3f_b260_f7e59755beb0--><polygon fill="#A9A9A9" filter="url(#fm1z6qc)" points="1171,294,1210,294,1217,316.7999,1617,316.7999,1617,398,1171,398,1171,294" style="stroke: #A9A9A9; stroke-width: 2.0;"/><line style="stroke: #A9A9A9; stroke-width: 2.0;" x1="1171" x2="1217" y1="316.7999" y2="316.7999"/><text fill="#000000" font-family="sans-serif" font-size="14" font-weight="bold" lengthAdjust="spacingAndGlyphs" textLength="33" x="1175" y="309.0059">ApiA</text><!--cluster b3689511_9c47_499d_a862_574ae0d16aac--><polygon fill="#A9A9A9" filter="url(#fm1z6qc)" points="660,809,1198,809,1205,831.7999,1208,831.7999,1208,913,660,913,660,809" style="stroke: #A9A9A9; stroke-width: 2.0;"/><line style="stroke: #A9A9A9; stroke-width: 2.0;" x1="660" x2="1205" y1="831.7999" y2="831.7999"/><text fill="#000000" font-family="sans-serif" font-size="14" font-weight="bold" lengthAdjust="spacingAndGlyphs" textLength="532" x="664" y="824.0059">ExampleClassWithoutOwnershipThatIsADependencyOfAClassWithOwnership</text><!--entity invisible_fbf732d7_3141_463b_95d5_d8b1501ce9d0--><rect fill="#A9A9A9" height="36.7999" style="stroke: #A9A9A9; stroke-width: 1.5;" width="357" x="1361.5" y="852"/><text fill="#A9A9A9" font-family="sans-serif" font-size="14" lengthAdjust="spacingAndGlyphs" textLength="337" x="1371.5" y="875.0059">invisible_fbf732d7_3141_463b_95d5_d8b1501ce9d0</text><!--entity invisible_b5240652_e30c_4e2b_a93e_cbe28c5e0a79--><rect fill="#A9A9A9" height="36.7999" style="stroke: #A9A9A9; stroke-width: 1.5;" width="363" x="163.5" y="625"/><text fill="#A9A9A9" font-family="sans-serif" font-size="14" lengthAdjust="spacingAndGlyphs" textLength="343" x="173.5" y="648.0059">invisible_b5240652_e30c_4e2b_a93e_cbe28c5e0a79</text><!--entity invisible_d03a4307_96f1_4596_a1d5_43c22fffc81c--><rect fill="#A9A9A9" height="36.7999" style="stroke: #A9A9A9; stroke-width: 1.5;" width="347" x="182.5" y="134"/><text fill="#A9A9A9" font-family="sans-serif" font-size="14" lengthAdjust="spacingAndGlyphs" textLength="327" x="192.5" y="157.0059">invisible_d03a4307_96f1_4596_a1d5_43c22fffc81c</text><!--entity invisible_c5b88c9a_b3a9_4bd3_aca1_37da67b3818d--><rect fill="#A9A9A9" height="36.7999" style="stroke: #A9A9A9; stroke-width: 1.5;" width="363" x="181.5" y="481"/><text fill="#A9A9A9" font-family="sans-serif" font-size="14" lengthAdjust="spacingAndGlyphs" textLength="343" x="191.5" y="504.0059">invisible_c5b88c9a_b3a9_4bd3_aca1_37da67b3818d</text><!--entity invisible_9048c482_5757_4bc7_b4a9_d3ccba23a28d--><rect fill="#A9A9A9" height="36.7999" style="stroke: #A9A9A9; stroke-width: 1.5;" width="362" x="880" y="625"/><text fill="#A9A9A9" font-family="sans-serif" font-size="14" lengthAdjust="spacingAndGlyphs" textLength="342" x="890" y="648.0059">invisible_9048c482_5757_4bc7_b4a9_d3ccba23a28d</text><!--entity invisible_1a379d74_22e8_45b0_b153_f1ecc1e2527d--><rect fill="#A9A9A9" height="36.7999" style="stroke: #A9A9A9; stroke-width: 1.5;" width="360" x="747" y="337"/><text fill="#A9A9A9" font-family="sans-serif" font-size="14" lengthAdjust="spacingAndGlyphs" textLength="340" x="757" y="360.0059">invisible_1a379d74_22e8_45b0_b153_f1ecc1e2527d</text><!--entity invisible_5ac3ae11_d207_44fe_bf51_aec16e990584--><rect fill="#A9A9A9" height="36.7999" style="stroke: #A9A9A9; stroke-width: 1.5;" width="356" x="1065" y="481"/><text fill="#A9A9A9" font-family="sans-serif" font-size="14" lengthAdjust="spacingAndGlyphs" textLength="336" x="1075" y="504.0059">invisible_5ac3ae11_d207_44fe_bf51_aec16e990584</text><!--entity invisible_7c832fd7_2325_482d_9e59_652a76d13699--><rect fill="#A9A9A9" height="36.7999" style="stroke: #A9A9A9; stroke-width: 1.5;" width="361" x="1232.5" y="337"/><text fill="#A9A9A9" font-family="sans-serif" font-size="14" lengthAdjust="spacingAndGlyphs" textLength="341" x="1242.5" y="360.0059">invisible_7c832fd7_2325_482d_9e59_652a76d13699</text><!--entity invisible_5d66757f_71ac_479b_8dcf_ff248ab9b332--><rect fill="#A9A9A9" height="36.7999" style="stroke: #A9A9A9; stroke-width: 1.5;" width="348" x="761" y="852"/><text fill="#A9A9A9" font-family="sans-serif" font-size="14" lengthAdjust="spacingAndGlyphs" textLength="328" x="771" y="875.0059">invisible_5d66757f_71ac_479b_8dcf_ff248ab9b332</text><path d="M109.4093,581.5332 C109.4076,581.0677 109.406,580.6 109.4043,580.1301 C109.3785,572.6115 109.3654,564.5331 109.3707,555.9628 C109.3814,538.8221 109.4663,519.7134 109.6725,499.1787 C110.4975,417.04 113.265,312.085 121,219 C121.5875,211.9225 122.3594,204.4313 123.1919,197.1417 C123.2439,196.6861 123.2962,196.2313 123.3486,195.7774 C123.3749,195.5505 123.4012,195.3238 123.4275,195.0974 " fill="none" style="stroke: #7632DB; stroke-width: 2.0;"/><polygon fill="#FFFFFF" points="123.4275,195.0974,114.2794,213.1615,128.1856,214.7788,123.4275,195.0974" style="stroke: #7632DB; stroke-width: 1.0;"/><path d="M1003.8166,504.5326 C1003.5575,504.6112 1003.2942,504.691 1003.0269,504.7721 C1001.9573,505.0963 1000.8216,505.4407 999.6247,505.8057 C997.2307,506.5359 994.5915,507.3489 991.7448,508.2493 C986.0515,510.0501 979.5284,512.2003 972.4788,514.7362 C944.28,524.88 907.655,541.195 882,566 C878.6325,569.2563 875.5311,572.8816 872.6472,576.7343 C871.9263,577.6975 871.2189,578.6749 870.5244,579.6643 C870.1771,580.159 869.8331,580.6567 869.4921,581.1571 C869.3217,581.4073 869.152,581.6582 868.9831,581.9097 " fill="none" style="stroke: #32DBB6; stroke-width: 2.0;"/><polygon fill="#FFFFFF" points="868.9831,581.9097,885.3869,570.0391,873.7645,562.2339,868.9831,581.9097" style="stroke: #32DBB6; stroke-width: 1.0;"/><path d="M736.9352,398.0942 C739.9731,404.2138 743.775,409.845 749,414 C764.2,426.08 817.11,417.5 836,422 C880.73,432.645 928.825,451.555 963.74,467.91 C972.4688,471.9988 980.3738,475.9278 987.1965,479.5281 C990.6079,481.3283 993.7487,483.0462 996.5866,484.6609 C998.0055,485.4682 999.3488,486.2497 1000.6123,487.0027 C1001.244,487.3793 1001.8558,487.7486 1002.4471,488.1106 C1002.7428,488.2916 1003.0334,488.4707 1003.3188,488.6479 C1003.4615,488.7365 1003.6029,488.8246 1003.743,488.9123 " fill="none" style="stroke: #DB4832; stroke-width: 2.0;"/><polygon fill="#FFFFFF" points="1003.743,488.9123,991.3479,472.901,983.9228,484.7698,1003.743,488.9123" style="stroke: #DB4832; stroke-width: 1.0;"/><path d="M1179.951,398.2116 C1179.8549,398.3071 1179.7585,398.4024 1179.6617,398.4977 C1173.4694,404.5919 1165.9875,410.11 1158,414 C1128.26,428.48 1111.04,402.94 1084,422 C1080.1563,424.7088 1076.6961,427.9289 1073.516,431.4911 C1071.926,433.2722 1070.406,435.1389 1068.9431,437.0699 C1068.7602,437.3112 1068.5782,437.5536 1068.3971,437.797 " fill="none" style="stroke: #7D32DB; stroke-width: 2.0;"/><polygon fill="#FFFFFF" points="1068.3971,437.797,1085.3564,426.7342,1074.1254,418.3757,1068.3971,437.797" style="stroke: #7D32DB; stroke-width: 1.0;"/><path d="M149.3052,195.2744 C149.5939,195.6447 149.886,196.0128 150.1814,196.3784 C154.9081,202.2281 160.4925,207.4375 167,211 C180.18,218.22 697.29,208.45 708,219 C718.56,229.4075 724.165,242.8988 726.6142,257.3256 C727.8388,264.5391 728.2745,271.9864 728.1461,279.3991 C728.0819,283.1055 727.8767,286.8032 727.5586,290.4587 C727.4791,291.3726 727.3925,292.2838 727.2993,293.1919 C727.276,293.4189 727.2523,293.6457 727.2282,293.8724 " fill="none" style="stroke: #8732DB; stroke-width: 2.0;"/><polygon fill="#FFFFFF" points="727.2282,293.8724,736.1998,275.7199,722.2784,274.2382,727.2282,293.8724" style="stroke: #8732DB; stroke-width: 1.0;"/><path d="M712,399.0287 C712,401.3277 712,403.7052 712,406.1574 C712,415.9661 712,426.9695 712,438.9288 C712,486.7656 712,549.895 712,613.0225 C712,676.15 712,739.2756 712,787.105 C712,793.0837 712,798.8233 712,804.2941 C712,805.6618 712,807.0127 712,808.3463 " fill="none" style="stroke: #5EDB32; stroke-width: 2.0;"/><polygon fill="#FFFFFF" points="712,808.3463,719,789.3463,705,789.3463,712,808.3463" style="stroke: #5EDB32; stroke-width: 1.0;"/><path d="M1031.6724,542.1251 C1031.9541,542.4964 1032.2391,542.8655 1032.5275,543.2322 C1037.1413,549.0994 1042.6075,554.3525 1049,558 C1069.18,569.52 1240.57,550.63 1258,566 C1308.455,610.515 1321.355,684.7325 1321.4463,748.6313 C1321.4691,764.6059 1320.6913,779.9357 1319.4997,793.9952 C1319.2018,797.5101 1318.878,800.9456 1318.5344,804.2919 C1318.4485,805.1285 1318.3614,805.9595 1318.2731,806.7848 C1318.229,807.1974 1318.1845,807.6086 1318.1398,808.0184 " fill="none" style="stroke: #DBA232; stroke-width: 2.0;"/><polygon fill="#FFFFFF" points="1318.1398,808.0184,1327.1591,789.8896,1313.2417,788.3713,1318.1398,808.0184" style="stroke: #DBA232; stroke-width: 1.0;"/><path d="M1003.5358,501.9236 C1003.1422,501.9891 1002.7355,502.0567 1002.3159,502.1263 C1001.4767,502.2656 1000.5857,502.4132 999.644,502.5689 C992.1109,503.814 981.3361,505.573 967.8884,507.7111 C940.9931,511.9872 903.4063,517.7794 859.6775,524.0088 C772.22,536.4675 660.195,550.675 560,558 C548.58,558.83 157.67,559.88 148,566 C144.1163,568.46 140.6159,571.4459 137.4631,574.7944 C135.8867,576.4686 134.3972,578.2334 132.9901,580.0685 C132.6383,580.5272 132.2917,580.9904 131.9501,581.4576 C131.8647,581.5744 131.7797,581.6915 131.6949,581.8088 " fill="none" style="stroke: #5132DB; stroke-width: 2.0;"/><polygon fill="#FFFFFF" points="131.6949,581.8088,148.4961,570.5074,137.148,562.3084,131.6949,581.8088" style="stroke: #5132DB; stroke-width: 1.0;"/><path d="M151.3112,195.2259 C151.3836,195.3198 151.4563,195.4136 151.5291,195.5074 C151.6747,195.6948 151.8211,195.8818 151.968,196.0684 C152.262,196.4416 152.5587,196.8131 152.8581,197.1826 C153.4569,197.9217 154.0664,198.6532 154.6867,199.3753 C155.9273,200.8195 157.2109,202.2263 158.5369,203.5822 C161.1891,206.2941 164.0113,208.8025 167,211 C258.895,278.56 381.93,314.405 482.5913,333.375 C532.9219,342.86 577.6591,348.1263 610.1136,351.0288 C626.3409,352.48 639.4975,353.3403 648.7472,353.8416 C651.0597,353.9669 653.128,354.0697 654.939,354.1538 C655.1654,354.1643 655.3877,354.1745 655.606,354.1844 " fill="none" style="stroke: #32DBCE; stroke-width: 1.0; stroke-dasharray: 7.0,7.0;"/><polygon fill="#32DBCE" points="655.606,354.1844,646.797,349.7798,650.6112,353.9574,646.4337,357.7716,655.606,354.1844" style="stroke: #32DBCE; stroke-width: 1.0;"/><path d="M150.6508,437.77 C150.7353,437.6514 150.8202,437.5331 150.9053,437.415 C151.0755,437.1788 151.2469,436.9435 151.4194,436.7092 C152.8,434.8345 154.2568,433.0207 155.7933,431.287 C158.8664,427.8195 162.2588,424.6725 166,422 C211.06,389.815 333.975,373.4425 446.4088,365.115 C502.6256,360.9513 556.2222,358.7988 596.1564,357.6866 C616.1235,357.1305 632.675,356.8345 644.4307,356.6771 C647.3696,356.6378 650.0088,356.6072 652.3267,356.5833 C653.4856,356.5713 654.5642,356.5611 655.5598,356.5523 " fill="none" style="stroke: #32DBA8; stroke-width: 1.0; stroke-dasharray: 7.0,7.0;"/><polygon fill="#32DBA8" points="655.5598,356.5523,646.5249,352.6319,650.56,356.5965,646.5955,360.6316,655.5598,356.5523" style="stroke: #32DBA8; stroke-width: 1.0;"/><path d="M1032.8827,437.801 C1032.966,437.6837 1033.0496,437.5666 1033.1335,437.4499 C1033.4692,436.9827 1033.81,436.5197 1034.1561,436.061 C1035.5403,434.2265 1037.0082,432.4622 1038.5644,430.7886 C1041.6767,427.4416 1045.1425,424.4575 1049,422 C1062.12,413.64 1598.08,425.08 1609,414 C1669.84,352.28 1668.25,282.25 1609,219 C1590.025,198.745 1341.6525,182.4175 1097.09,171.13 C974.8088,165.4863 853.48,161.1025 762.2547,158.1178 C716.642,156.6255 678.5552,155.4829 651.6382,154.7075 C638.1796,154.3197 627.5135,154.0238 620.0953,153.8219 C619.1681,153.7966 618.2915,153.7728 617.4667,153.7505 C617.0542,153.7394 616.6547,153.7286 616.2682,153.7182 " fill="none" style="stroke: #DB32C5; stroke-width: 1.0; stroke-dasharray: 7.0,7.0;"/><polygon fill="#DB32C5" points="616.2682,153.7182,625.1571,157.9592,621.2663,153.8529,625.3727,149.9621,616.2682,153.7182" style="stroke: #DB32C5; stroke-width: 1.0;"/><path d="M1170.9208,303.5664 C1170.8652,303.3457 1170.8091,303.1248 1170.7527,302.9035 C1170.5271,302.0183 1170.2954,301.1282 1170.0575,300.2338 C1162.445,271.61 1148.48,238.48 1123,219 C1077.53,184.24 950.4275,167.8475 833.8788,160.1538 C775.6044,156.3069 719.9684,154.6347 678.4942,153.9286 C657.7571,153.5755 640.5604,153.464 628.3446,153.4429 C625.2906,153.4377 622.548,153.4381 620.1391,153.4417 C618.9347,153.4436 617.8137,153.4462 616.779,153.4494 C616.5203,153.4502 616.2671,153.4511 616.0192,153.4519 " fill="none" style="stroke: #7ADB32; stroke-width: 1.0; stroke-dasharray: 7.0,7.0;"/><polygon fill="#7ADB32" points="616.0192,153.4519,625.033,157.4207,621.0192,153.4346,625.0053,149.4208,616.0192,153.4519" style="stroke: #7ADB32; stroke-width: 1.0;"/></g></svg>