<?xml version="1.0" encoding="UTF-8" standalone="no"?><svg xmlns="http://www.w3.org/2000/svg" xmlns:xlink="http://www.w3.org/1999/xlink" contentScriptType="application/ecmascript" contentStyleType="text/css" height="1374px" preserveAspectRatio="none" style="width:1108px;height:1374px;" version="1.1" viewBox="0 0 1108 1374" width="1108px" zoomAndPan="magnify"><defs><filter height="300%" id="f98utky" width="300%" x="-1" y="-1"><feGaussianBlur result="blurOut" stdDeviation="2.0"/><feColorMatrix in="blurOut" result="blurOut2" type="matrix" values="0 0 0 0 0 0 0 0 0 0 0 0 0 0 0 0 0 0 .4 0"/><feOffset dx="4.0" dy="4.0" in="blurOut2" result="blurOut3"/><feBlend in="SourceGraphic" in2="blurOut3" mode="normal"/></filter></defs><g><!--cluster baaa33ad_3386_44e7_96f4_ed237b14998b--><polygon fill="#D3D3D3" filter="url(#f98utky)" points="41,84,105,84,112,106.7999,1026,106.7999,1026,452,41,452,41,84" style="stroke: #D3D3D3; stroke-width: 2.0;"/><line style="stroke: #D3D3D3; stroke-width: 2.0;" x1="41" x2="112" y1="106.7999" y2="106.7999"/><text fill="#000000" font-family="sans-serif" font-size="14" font-weight="bold" lengthAdjust="spacingAndGlyphs" textLength="58" x="45" y="99.0059">TEAM_B</text><!--cluster ee011a19_34bb_4edb_bcbb_0995aa14aa51--><polygon fill="#A9A9A9" filter="url(#f98utky)" points="553,143,619,143,626,165.7999,978,165.7999,978,247,553,247,553,143" style="stroke: #A9A9A9; stroke-width: 2.0;"/><line style="stroke: #A9A9A9; stroke-width: 2.0;" x1="553" x2="626" y1="165.7999" y2="165.7999"/><text fill="#000000" font-family="sans-serif" font-size="14" font-weight="bold" lengthAdjust="spacingAndGlyphs" textLength="60" x="557" y="158.0059">FacadeB</text><!--cluster 6bd3dcc6_27c0_482a_9ea8_588dabcef0ae--><polygon fill="#A9A9A9" filter="url(#f98utky)" points="81,308,147,308,154,330.7999,492,330.7999,492,412,81,412,81,308" style="stroke: #A9A9A9; stroke-width: 2.0;"/><line style="stroke: #A9A9A9; stroke-width: 2.0;" x1="81" x2="154" y1="330.7999" y2="330.7999"/><text fill="#000000" font-family="sans-serif" font-size="14" font-weight="bold" lengthAdjust="spacingAndGlyphs" textLength="60" x="85" y="323.0059">ServiceB</text><!--cluster 4df56bee_113c_4ddc_984e_465fb200dd19--><polygon fill="#A9A9A9" filter="url(#f98utky)" points="81,143,347,143,354,165.7999,513,165.7999,513,247,81,247,81,143" style="stroke: #A9A9A9; stroke-width: 2.0;"/><line style="stroke: #A9A9A9; stroke-width: 2.0;" x1="81" x2="354" y1="165.7999" y2="165.7999"/><text fill="#000000" font-family="sans-serif" font-size="14" font-weight="bold" lengthAdjust="spacingAndGlyphs" textLength="260" x="85" y="158.0059">ClassWithMultipleMethodsOwnedByA</text><!--cluster d8799a60_1162_4865_87bf_02e225a760ec--><polygon fill="#D3D3D3" filter="url(#f98utky)" points="30,492,94,492,101,514.7999,593,514.7999,593,1148,30,1148,30,492" style="stroke: #D3D3D3; stroke-width: 2.0;"/><line style="stroke: #D3D3D3; stroke-width: 2.0;" x1="30" x2="101" y1="514.7999" y2="514.7999"/><text fill="#000000" font-family="sans-serif" font-size="14" font-weight="bold" lengthAdjust="spacingAndGlyphs" textLength="58" x="34" y="507.0059">TEAM_A</text><!--cluster 63362949_9c1d_46dd_b7df_e996419524e0--><polygon fill="#A9A9A9" filter="url(#f98utky)" points="120,716,159,716,166,738.7999,545,738.7999,545,820,120,820,120,716" style="stroke: #A9A9A9; stroke-width: 2.0;"/><line style="stroke: #A9A9A9; stroke-width: 2.0;" x1="120" x2="166" y1="738.7999" y2="738.7999"/><text fill="#000000" font-family="sans-serif" font-size="14" font-weight="bold" lengthAdjust="spacingAndGlyphs" textLength="33" x="124" y="731.0059">ApiA</text><!--cluster c12d70c0_6ff6_4f9f_a377_c5c430a2a7c0--><polygon fill="#A9A9A9" filter="url(#f98utky)" points="70,551,136,551,143,573.7999,495,573.7999,495,655,70,655,70,551" style="stroke: #A9A9A9; stroke-width: 2.0;"/><line style="stroke: #A9A9A9; stroke-width: 2.0;" x1="70" x2="143" y1="573.7999" y2="573.7999"/><text fill="#000000" font-family="sans-serif" font-size="14" font-weight="bold" lengthAdjust="spacingAndGlyphs" textLength="60" x="74" y="566.0059">FacadeA</text><!--cluster 2c2a3c78_8dfb_452b_9bbd_192bbbce6bcc--><polygon fill="#A9A9A9" filter="url(#f98utky)" points="102,1004,168,1004,175,1026.7999,545,1026.7999,545,1108,102,1108,102,1004" style="stroke: #A9A9A9; stroke-width: 2.0;"/><line style="stroke: #A9A9A9; stroke-width: 2.0;" x1="102" x2="175" y1="1026.7999" y2="1026.7999"/><text fill="#000000" font-family="sans-serif" font-size="14" font-weight="bold" lengthAdjust="spacingAndGlyphs" textLength="60" x="106" y="1019.0059">ServiceA</text><!--cluster b06ba60c_6d2c_4eaf_8301_9dca626850a0--><polygon fill="#A9A9A9" filter="url(#f98utky)" points="83,860,174,860,181,882.7999,508,882.7999,508,964,83,964,83,860" style="stroke: #A9A9A9; stroke-width: 2.0;"/><line style="stroke: #A9A9A9; stroke-width: 2.0;" x1="83" x2="181" y1="882.7999" y2="882.7999"/><text fill="#000000" font-family="sans-serif" font-size="14" font-weight="bold" lengthAdjust="spacingAndGlyphs" textLength="85" x="87" y="875.0059">RepositoryA</text><!--cluster 577e4d84_2220_40fe_99ac_413d0c438553--><polygon fill="#D3D3D3" filter="url(#f98utky)" points="70,1180,134,1180,141,1202.7999,561,1202.7999,561,1367,70,1367,70,1180" style="stroke: #D3D3D3; stroke-width: 2.0;"/><line style="stroke: #D3D3D3; stroke-width: 2.0;" x1="70" x2="141" y1="1202.7999" y2="1202.7999"/><text fill="#000000" font-family="sans-serif" font-size="14" font-weight="bold" lengthAdjust="spacingAndGlyphs" textLength="58" x="74" y="1195.0059">TEAM_C</text><!--cluster d5e84824_a109_4bbe_9e76_fb85d338a83e--><polygon fill="#A9A9A9" filter="url(#f98utky)" points="102,1231,194,1231,201,1253.7999,529,1253.7999,529,1335,102,1335,102,1231" style="stroke: #A9A9A9; stroke-width: 2.0;"/><line style="stroke: #A9A9A9; stroke-width: 2.0;" x1="102" x2="201" y1="1253.7999" y2="1253.7999"/><text fill="#000000" font-family="sans-serif" font-size="14" font-weight="bold" lengthAdjust="spacingAndGlyphs" textLength="86" x="106" y="1246.0059">SomeClassC</text><!--entity invisible_4f1b4383_33fe_4c81_a303_aa30431aa5a3--><rect fill="#A9A9A9" height="36.7999" style="stroke: #A9A9A9; stroke-width: 1.5;" width="357" x="596.5" y="186"/><text fill="#A9A9A9" font-family="sans-serif" font-size="14" lengthAdjust="spacingAndGlyphs" textLength="337" x="606.5" y="209.0059">invisible_4f1b4383_33fe_4c81_a303_aa30431aa5a3</text><!--entity invisible_fdd632ed_8a5f_49f4_a13d_b9cac8f1e33f--><rect fill="#A9A9A9" height="36.7999" style="stroke: #A9A9A9; stroke-width: 1.5;" width="344" x="124" y="351"/><text fill="#A9A9A9" font-family="sans-serif" font-size="14" lengthAdjust="spacingAndGlyphs" textLength="324" x="134" y="374.0059">invisible_fdd632ed_8a5f_49f4_a13d_b9cac8f1e33f</text><!--entity invisible_e730a291_515a_44b1_b444_a92e956c4ee3--><rect fill="#A9A9A9" height="36.7999" style="stroke: #A9A9A9; stroke-width: 1.5;" width="365" x="124.5" y="186"/><text fill="#A9A9A9" font-family="sans-serif" font-size="14" lengthAdjust="spacingAndGlyphs" textLength="345" x="134.5" y="209.0059">invisible_e730a291_515a_44b1_b444_a92e956c4ee3</text><!--entity invisible_5e2317da_0ea3_437a_a836_a85aafb68a7f--><rect fill="#A9A9A9" height="36.7999" style="stroke: #A9A9A9; stroke-width: 1.5;" width="358" x="163" y="759"/><text fill="#A9A9A9" font-family="sans-serif" font-size="14" lengthAdjust="spacingAndGlyphs" textLength="338" x="173" y="782.0059">invisible_5e2317da_0ea3_437a_a836_a85aafb68a7f</text><!--entity invisible_1cc4cd3d_79ea_4a73_a577_cbf619655a33--><rect fill="#A9A9A9" height="36.7999" style="stroke: #A9A9A9; stroke-width: 1.5;" width="358" x="113" y="594"/><text fill="#A9A9A9" font-family="sans-serif" font-size="14" lengthAdjust="spacingAndGlyphs" textLength="338" x="123" y="617.0059">invisible_1cc4cd3d_79ea_4a73_a577_cbf619655a33</text><!--entity invisible_6b9ad496_8e38_49f2_b2fd_8c65eeada628--><rect fill="#A9A9A9" height="36.7999" style="stroke: #A9A9A9; stroke-width: 1.5;" width="357" x="163.5" y="1047"/><text fill="#A9A9A9" font-family="sans-serif" font-size="14" lengthAdjust="spacingAndGlyphs" textLength="337" x="173.5" y="1070.0059">invisible_6b9ad496_8e38_49f2_b2fd_8c65eeada628</text><!--entity invisible_a4aa5020_3911_46fa_bf53_bb496bdb7506--><rect fill="#A9A9A9" height="36.7999" style="stroke: #A9A9A9; stroke-width: 1.5;" width="358" x="126" y="903"/><text fill="#A9A9A9" font-family="sans-serif" font-size="14" lengthAdjust="spacingAndGlyphs" textLength="338" x="136" y="926.0059">invisible_a4aa5020_3911_46fa_bf53_bb496bdb7506</text><!--entity invisible_89cb0ed3_cc8d_43be_8744_0f68715551a0--><rect fill="#A9A9A9" height="36.7999" style="stroke: #A9A9A9; stroke-width: 1.5;" width="359" x="145.5" y="1274"/><text fill="#A9A9A9" font-family="sans-serif" font-size="14" lengthAdjust="spacingAndGlyphs" textLength="339" x="155.5" y="1297.0059">invisible_89cb0ed3_cc8d_43be_8744_0f68715551a0</text><path d="M152.5544,820.118 C152.6019,820.2133 152.6496,820.3085 152.6975,820.4036 C155.7625,826.4881 159.635,832.0275 165,836 C180.77,847.67 504.29,829.97 518,844 C560.25,887.22 560.25,936.78 518,980 C504.29,994.03 181.5,977.39 165,988 C161.06,990.5338 157.5281,993.6158 154.3294,997.0711 C152.7301,998.7988 151.214,1000.6198 149.7719,1002.5122 C149.4113,1002.9853 149.0554,1003.4629 148.704,1003.9446 " fill="none" style="stroke: #DB3264; stroke-width: 2.0;"/><polygon fill="#FFFFFF" points="148.704,1003.9446,165.5574,992.7213,154.2475,984.4698,148.704,1003.9446" style="stroke: #DB3264; stroke-width: 1.0;"/><path d="M83.2632,655.2133 C83.2548,655.58 83.246,655.9488 83.2369,656.3196 C83.2187,657.0612 83.1994,657.811 83.1789,658.5688 C83.097,661.6001 82.9972,664.7603 82.8832,668.0416 C82.655,674.6043 82.3697,681.6519 82.0561,689.1238 C81.4288,704.0677 80.6881,720.7088 80.065,738.5625 C77.5725,809.9775 76.96,900.795 93,980 C95.0025,989.8825 98.165,1000.0613 101.5141,1009.7813 C101.6187,1010.085 101.7236,1010.3883 101.8286,1010.6911 C101.8811,1010.8425 101.9336,1010.9938 101.9862,1011.145 " fill="none" style="stroke: #32DB3D; stroke-width: 2.0;"/><polygon fill="#FFFFFF" points="101.9862,1011.145,102.3575,990.9,89.1341,995.4981,101.9862,1011.145" style="stroke: #32DB3D; stroke-width: 1.0;"/><path d="M115.1952,1003.3044 C115.0759,1002.2217 114.9519,1001.1358 114.8233,1000.0479 C114.5662,997.872 114.291,995.6879 113.9988,993.5038 C112.8297,984.7672 111.388,976.0305 109.7447,967.823 C109.5392,966.7971 109.3307,965.7794 109.1191,964.771 C109.0662,964.519 109.0131,964.2674 108.9598,964.0165 " fill="none" style="stroke: #32DB51; stroke-width: 2.0;"/><polygon fill="#FFFFFF" points="108.9598,964.0165,106.0584,984.056,119.7531,981.1485,108.9598,964.0165" style="stroke: #32DB51; stroke-width: 1.0;"/><path d="M552.9846,218.0485 C552.7621,218.3683 552.5355,218.6921 552.3047,219.0199 C551.8431,219.6755 551.3648,220.3467 550.8702,221.0314 C548.892,223.7706 546.6534,226.7281 544.1813,229.78 C534.2925,241.9875 520.665,255.705 505,263 C424.81,300.34 175.65,235 108,292 C104.7563,294.7338 102.0195,297.9272 99.7146,301.4289 C98.5621,303.1797 97.5176,305.0077 96.5717,306.8937 C96.4534,307.1295 96.3367,307.3661 96.2215,307.6037 C96.1639,307.7224 96.1067,307.8414 96.0499,307.9606 " fill="none" style="stroke: #51DB32; stroke-width: 2.0;"/><polygon fill="#FFFFFF" points="96.0499,307.9606,110.5457,293.823,97.9086,287.7976,96.0499,307.9606" style="stroke: #51DB32; stroke-width: 1.0;"/><path d="M110,1108.6726 C110,1109.0136 110,1109.356 110,1109.6998 C110,1110.3875 110,1111.0808 110,1111.7796 C110,1114.5748 110,1117.4573 110,1120.4148 C110,1126.3297 110,1132.5443 110,1138.9587 C110,1151.7873 110,1165.4147 110,1179.0412 C110,1192.6678 110,1206.2935 110,1219.1187 C110,1222.325 110,1225.4812 110,1228.575 C110,1229.3484 110,1230.1179 110,1230.8834 " fill="none" style="stroke: #DB32AF; stroke-width: 2.0;"/><polygon fill="#FFFFFF" points="110,1230.8834,117,1211.8834,103,1211.8834,110,1230.8834" style="stroke: #DB32AF; stroke-width: 1.0;"/><path d="M130.91,1003.8449 C130.9932,1003.7275 131.0767,1003.6103 131.1606,1003.4934 C131.4959,1003.0257 131.8364,1002.5621 132.1821,1002.1028 C133.5648,1000.2655 135.0307,998.498 136.5845,996.8206 C139.692,993.4658 143.1513,990.4713 147,988 C182.26,965.36 488.03,1001.49 524,980 C612.33,927.22 638,881.39 638,778.5 C638,368.5 638,368.5 638,368.5 C638,314.99 601.37,312.05 580,263 C578.6988,260.0125 577.4341,256.9053 576.2162,253.7512 C575.6072,252.1742 575.0099,250.5854 574.4256,248.994 C574.2796,248.5962 574.1343,248.1982 573.9899,247.8001 C573.9177,247.6011 573.8457,247.4021 573.7739,247.2031 " fill="none" style="stroke: #324EDB; stroke-width: 2.0;"/><polygon fill="#FFFFFF" points="573.7739,247.2031,573.6372,267.4511,586.8064,262.7,573.7739,247.2031" style="stroke: #324EDB; stroke-width: 1.0;"/><path d="M87.087,412.4299 C87.0705,412.7914 87.054,413.1545 87.0373,413.5192 C86.9707,414.9782 86.9029,416.4635 86.834,417.9733 C86.6961,420.993 86.5538,424.1109 86.4076,427.3129 C86.1153,433.7171 85.8076,440.458 85.4896,447.4234 C84.8537,461.3541 84.1769,476.1828 83.5,491.0113 C82.8231,505.8397 82.1463,520.6679 81.5104,534.5977 C81.3514,538.0802 81.195,541.5065 81.0418,544.8626 C80.9651,546.5407 80.8893,548.2012 80.8144,549.8424 C80.805,550.0476 80.7957,550.2524 80.7864,550.4569 " fill="none" style="stroke: #3267DB; stroke-width: 2.0;"/><polygon fill="#FFFFFF" points="80.7864,550.4569,88.6456,531.796,74.6601,531.1575,80.7864,550.4569" style="stroke: #3267DB; stroke-width: 1.0;"/><path d="M135.0106,715.9137 C135.0676,715.7946 135.1249,715.6758 135.1827,715.5572 C135.2981,715.32 135.4151,715.0837 135.5337,714.8483 C136.482,712.9651 137.5295,711.1406 138.6855,709.394 C140.9975,705.9008 143.7438,702.7188 147,700 C185.8,667.61 550.69,675.93 601,671 C698.04,661.5 1036,711.01 1036,613.5 C1036,368.5 1036,368.5 1036,368.5 C1036,332.625 1031.64,292.5775 1027.2112,261.1563 C1026.9345,259.1924 1026.6574,257.2623 1026.3811,255.369 C1026.312,254.8957 1026.243,254.4246 1026.174,253.9559 C1026.1396,253.7216 1026.1051,253.4879 1026.0707,253.2547 " fill="none" style="stroke: #9732DB; stroke-width: 1.0; stroke-dasharray: 7.0,7.0;"/><polygon fill="#9732DB" points="1026.0707,253.2547,1023.4289,262.7426,1026.8014,258.201,1031.343,261.5735,1026.0707,253.2547" style="stroke: #9732DB; stroke-width: 1.0;"/><path d="M130.8983,1003.8215 C130.9815,1003.7041 131.0651,1003.587 131.149,1003.4702 C131.4845,1003.0028 131.8251,1002.5394 132.1709,1002.0805 C133.5543,1000.2446 135.021,998.4788 136.5758,996.8034 C139.6855,993.4527 143.1475,990.4638 147,988 C168.39,974.32 579.11,985.03 604,980 C840.06,932.33 1107,1019.33 1107,778.5 C1107,368.5 1107,368.5 1107,368.5 C1107,327.875 1085.44,287.7525 1063.5425,257.48 C1052.5938,242.3438 1041.5606,229.67 1033.0959,220.6272 C1030.9798,218.3665 1029.0241,216.3327 1027.2705,214.5441 C1027.0512,214.3206 1026.8352,214.1008 1026.6224,213.8849 C1026.516,213.777 1026.4104,213.67 1026.3056,213.564 " fill="none" style="stroke: #DB3239; stroke-width: 1.0; stroke-dasharray: 7.0,7.0;"/><polygon fill="#DB3239" points="1026.3056,213.564,1029.7879,222.7767,1029.8206,217.12,1035.4774,217.1527,1026.3056,213.564" style="stroke: #DB3239; stroke-width: 1.0;"/><path d="M85.9814,412.4833 C85.998,412.8095 86.0157,413.1363 86.0346,413.4637 C86.11,414.7734 86.2037,416.0925 86.3176,417.4179 C86.5454,420.0686 86.8537,422.7444 87.2573,425.4196 C88.0645,430.7701 89.2529,436.1185 90.9405,441.2605 C94.3156,451.5444 99.6875,461.0025 108,468 C124.11,481.56 468.35,466.22 487,476 C495.1,480.2463 502.6905,502.8525 509.7742,508.7999 " fill="none" style="stroke: #DB323B; stroke-width: 1.0; stroke-dasharray: 7.0,7.0;"/><polygon fill="#DB323B" points="509.7742,491.4464,505.4534,482.5959,505.9449,488.2314,500.3094,488.7228,509.7742,491.4464" style="stroke: #DB323B; stroke-width: 1.0;"/><path d="M96.8424,247.0663 C96.9297,247.2529 97.0179,247.4391 97.107,247.6247 C99.9606,253.565 103.81,259 109,263 C175.2,314.02 418.53,240.04 484,292 C541.415,337.57 566.78,415.68 577.735,483.26 C578.0773,485.3719 578.4056,487.4735 578.7204,489.5635 C578.799,490.086 578.8769,508.2789 578.9539,508.7999 " fill="none" style="stroke: #32DB62; stroke-width: 1.0; stroke-dasharray: 7.0,7.0;"/><polygon fill="#32DB62" points="578.9539,491.1288,581.5951,481.6407,578.2229,486.1825,573.6811,482.8103,578.9539,491.1288" style="stroke: #32DB62; stroke-width: 1.0;"/></g></svg>