<?xml version="1.0" encoding="UTF-8" standalone="no"?><svg xmlns="http://www.w3.org/2000/svg" xmlns:xlink="http://www.w3.org/1999/xlink" contentScriptType="application/ecmascript" contentStyleType="text/css" height="1121px" preserveAspectRatio="none" style="width:1276px;height:1121px;" version="1.1" viewBox="0 0 1276 1121" width="1276px" zoomAndPan="magnify"><defs><filter height="300%" id="fs1d4y3" width="300%" x="-1" y="-1"><feGaussianBlur result="blurOut" stdDeviation="2.0"/><feColorMatrix in="blurOut" result="blurOut2" type="matrix" values="0 0 0 0 0 0 0 0 0 0 0 0 0 0 0 0 0 0 .4 0"/><feOffset dx="4.0" dy="4.0" in="blurOut2" result="blurOut3"/><feBlend in="SourceGraphic" in2="blurOut3" mode="normal"/></filter></defs><g><!--cluster e35d571b_876a_4878_bb0d_f860e74651f6--><polygon fill="#D3D3D3" filter="url(#fs1d4y3)" points="47.13,235,111.13,235,118.13,257.7999,578.13,257.7999,578.13,886,47.13,886,47.13,235" style="stroke: #D3D3D3; stroke-width: 2.0;"/><line style="stroke: #D3D3D3; stroke-width: 2.0;" x1="47.13" x2="118.13" y1="257.7999" y2="257.7999"/><text fill="#000000" font-family="sans-serif" font-size="14" font-weight="bold" lengthAdjust="spacingAndGlyphs" textLength="58" x="51.13" y="250.0059">TEAM_B</text><!--cluster bbc47158_f144_4c39_a1c4_90f228d904a0--><polygon fill="#A9A9A9" filter="url(#fs1d4y3)" points="107.13,582,373.13,582,380.13,604.7999,530.13,604.7999,530.13,686,107.13,686,107.13,582" style="stroke: #A9A9A9; stroke-width: 2.0;"/><line style="stroke: #A9A9A9; stroke-width: 2.0;" x1="107.13" x2="380.13" y1="604.7999" y2="604.7999"/><text fill="#000000" font-family="sans-serif" font-size="14" font-weight="bold" lengthAdjust="spacingAndGlyphs" textLength="260" x="111.13" y="597.0059">ClassWithMultipleMethodsOwnedByA</text><!--cluster b94398b9_315b_4567_afc8_97954d20f87f--><polygon fill="#A9A9A9" filter="url(#fs1d4y3)" points="87.13,294,153.13,294,160.13,316.7999,530.13,316.7999,530.13,398,87.13,398,87.13,294" style="stroke: #A9A9A9; stroke-width: 2.0;"/><line style="stroke: #A9A9A9; stroke-width: 2.0;" x1="87.13" x2="160.13" y1="316.7999" y2="316.7999"/><text fill="#000000" font-family="sans-serif" font-size="14" font-weight="bold" lengthAdjust="spacingAndGlyphs" textLength="60" x="91.13" y="309.0059">FacadeB</text><!--cluster 9c67e9bf_4f20_489b_9363_20c0426ee596--><polygon fill="#A9A9A9" filter="url(#fs1d4y3)" points="87.13,742,153.13,742,160.13,764.7999,506.13,764.7999,506.13,846,87.13,846,87.13,742" style="stroke: #A9A9A9; stroke-width: 2.0;"/><line style="stroke: #A9A9A9; stroke-width: 2.0;" x1="87.13" x2="160.13" y1="764.7999" y2="764.7999"/><text fill="#000000" font-family="sans-serif" font-size="14" font-weight="bold" lengthAdjust="spacingAndGlyphs" textLength="60" x="91.13" y="757.0059">ServiceB</text><!--cluster 63b7b505_a2eb_4d1c_9baf_d6f3c7eb4f92--><polygon fill="#D3D3D3" filter="url(#fs1d4y3)" points="618.13,32,682.13,32,689.13,54.7999,1269.13,54.7999,1269.13,811.86,618.13,811.86,618.13,32" style="stroke: #D3D3D3; stroke-width: 2.0;"/><line style="stroke: #D3D3D3; stroke-width: 2.0;" x1="618.13" x2="689.13" y1="54.7999" y2="54.7999"/><text fill="#000000" font-family="sans-serif" font-size="14" font-weight="bold" lengthAdjust="spacingAndGlyphs" textLength="58" x="622.13" y="47.0059">TEAM_A</text><!--cluster 75b051ad_9167_4cf1_923b_6fda36b00415--><polygon fill="#A9A9A9" filter="url(#fs1d4y3)" points="672.13,91,738.13,91,745.13,113.7999,1120.13,113.7999,1120.13,195,672.13,195,672.13,91" style="stroke: #A9A9A9; stroke-width: 2.0;"/><line style="stroke: #A9A9A9; stroke-width: 2.0;" x1="672.13" x2="745.13" y1="113.7999" y2="113.7999"/><text fill="#000000" font-family="sans-serif" font-size="14" font-weight="bold" lengthAdjust="spacingAndGlyphs" textLength="60" x="676.13" y="106.0059">FacadeA</text><!--cluster e679d830_1ff7_4001_aec3_df11b5407d0b--><polygon fill="#A9A9A9" filter="url(#fs1d4y3)" points="782.13,438,821.13,438,828.13,460.7999,1229.13,460.7999,1229.13,542,782.13,542,782.13,438" style="stroke: #A9A9A9; stroke-width: 2.0;"/><line style="stroke: #A9A9A9; stroke-width: 2.0;" x1="782.13" x2="828.13" y1="460.7999" y2="460.7999"/><text fill="#000000" font-family="sans-serif" font-size="14" font-weight="bold" lengthAdjust="spacingAndGlyphs" textLength="33" x="786.13" y="453.0059">ApiA</text><!--cluster 980d0cd4_ed97_4b66_9741_f5f92ff35b33--><polygon fill="#A9A9A9" filter="url(#fs1d4y3)" points="746.13,294,837.13,294,844.13,316.7999,1174.13,316.7999,1174.13,398,746.13,398,746.13,294" style="stroke: #A9A9A9; stroke-width: 2.0;"/><line style="stroke: #A9A9A9; stroke-width: 2.0;" x1="746.13" x2="844.13" y1="316.7999" y2="316.7999"/><text fill="#000000" font-family="sans-serif" font-size="14" font-weight="bold" lengthAdjust="spacingAndGlyphs" textLength="85" x="750.13" y="309.0059">RepositoryA</text><!--cluster 9d8626f0_2c4f_4f48_8de1_e78a1bd2640a--><polygon fill="#A9A9A9" filter="url(#fs1d4y3)" points="671.13,582,737.13,582,744.13,604.7999,1114.13,604.7999,1114.13,686,671.13,686,671.13,582" style="stroke: #A9A9A9; stroke-width: 2.0;"/><line style="stroke: #A9A9A9; stroke-width: 2.0;" x1="671.13" x2="744.13" y1="604.7999" y2="604.7999"/><text fill="#000000" font-family="sans-serif" font-size="14" font-weight="bold" lengthAdjust="spacingAndGlyphs" textLength="60" x="675.13" y="597.0059">ServiceA</text><!--cluster 09384ba2_cf7a_436a_9907_9b850cd981ff--><polygon fill="#D3D3D3" filter="url(#fs1d4y3)" points="639.13,927,703.13,927,710.13,949.7999,1133.13,949.7999,1133.13,1114,639.13,1114,639.13,927" style="stroke: #D3D3D3; stroke-width: 2.0;"/><line style="stroke: #D3D3D3; stroke-width: 2.0;" x1="639.13" x2="710.13" y1="949.7999" y2="949.7999"/><text fill="#000000" font-family="sans-serif" font-size="14" font-weight="bold" lengthAdjust="spacingAndGlyphs" textLength="58" x="643.13" y="942.0059">TEAM_C</text><!--cluster 9ec6c608_7396_4d98_ba54_8d482c0c4f7d--><polygon fill="#A9A9A9" filter="url(#fs1d4y3)" points="671.13,978,763.13,978,770.13,1000.7999,1101.13,1000.7999,1101.13,1082,671.13,1082,671.13,978" style="stroke: #A9A9A9; stroke-width: 2.0;"/><line style="stroke: #A9A9A9; stroke-width: 2.0;" x1="671.13" x2="770.13" y1="1000.7999" y2="1000.7999"/><text fill="#000000" font-family="sans-serif" font-size="14" font-weight="bold" lengthAdjust="spacingAndGlyphs" textLength="86" x="675.13" y="993.0059">SomeClassC</text><!--entity invisible_f0a15163_b46a_4137_af96_6087722cc742--><rect fill="#A9A9A9" height="36.7999" style="stroke: #A9A9A9; stroke-width: 1.5;" width="356" x="150.13" y="625"/><text fill="#A9A9A9" font-family="sans-serif" font-size="14" lengthAdjust="spacingAndGlyphs" textLength="336" x="160.13" y="648.0059">invisible_f0a15163_b46a_4137_af96_6087722cc742</text><!--entity invisible_37d30eb8_f544_4119_b2f1_4c76369209ad--><rect fill="#A9A9A9" height="36.7999" style="stroke: #A9A9A9; stroke-width: 1.5;" width="357" x="148.63" y="337"/><text fill="#A9A9A9" font-family="sans-serif" font-size="14" lengthAdjust="spacingAndGlyphs" textLength="337" x="158.63" y="360.0059">invisible_37d30eb8_f544_4119_b2f1_4c76369209ad</text><!--entity invisible_e1aad068_ff92_409c_bd54_fe85bcb49b62--><rect fill="#A9A9A9" height="36.7999" style="stroke: #A9A9A9; stroke-width: 1.5;" width="352" x="130.13" y="785"/><text fill="#A9A9A9" font-family="sans-serif" font-size="14" lengthAdjust="spacingAndGlyphs" textLength="332" x="140.13" y="808.0059">invisible_e1aad068_ff92_409c_bd54_fe85bcb49b62</text><!--entity invisible_a5582e7c_4121_4c30_911c_5a2d5933161a--><rect fill="#A9A9A9" height="36.7999" style="stroke: #A9A9A9; stroke-width: 1.5;" width="363" x="733.63" y="134"/><text fill="#A9A9A9" font-family="sans-serif" font-size="14" lengthAdjust="spacingAndGlyphs" textLength="343" x="743.63" y="157.0059">invisible_a5582e7c_4121_4c30_911c_5a2d5933161a</text><!--entity invisible_593eb660_6aa5_4184_b4d8_eb2ef5d7e780--><rect fill="#A9A9A9" height="36.7999" style="stroke: #A9A9A9; stroke-width: 1.5;" width="362" x="843.13" y="481"/><text fill="#A9A9A9" font-family="sans-serif" font-size="14" lengthAdjust="spacingAndGlyphs" textLength="342" x="853.13" y="504.0059">invisible_593eb660_6aa5_4184_b4d8_eb2ef5d7e780</text><!--entity invisible_980a3d27_5955_4d0e_941c_ce1d22bc8ecc--><rect fill="#A9A9A9" height="36.7999" style="stroke: #A9A9A9; stroke-width: 1.5;" width="361" x="789.63" y="337"/><text fill="#A9A9A9" font-family="sans-serif" font-size="14" lengthAdjust="spacingAndGlyphs" textLength="341" x="799.63" y="360.0059">invisible_980a3d27_5955_4d0e_941c_ce1d22bc8ecc</text><!--entity invisible_e9e5e310_ed65_441a_8ef8_2a5a076f77b4--><rect fill="#A9A9A9" height="36.7999" style="stroke: #A9A9A9; stroke-width: 1.5;" width="358" x="732.13" y="625"/><text fill="#A9A9A9" font-family="sans-serif" font-size="14" lengthAdjust="spacingAndGlyphs" textLength="338" x="742.13" y="648.0059">invisible_e9e5e310_ed65_441a_8ef8_2a5a076f77b4</text><!--entity invisible_d43c3c7d_d150_41d1_b204_775c5d7a546e--><rect fill="#A9A9A9" height="36.7999" style="stroke: #A9A9A9; stroke-width: 1.5;" width="363" x="714.63" y="1021"/><text fill="#A9A9A9" font-family="sans-serif" font-size="14" lengthAdjust="spacingAndGlyphs" textLength="343" x="724.63" y="1044.0059">invisible_d43c3c7d_d150_41d1_b204_775c5d7a546e</text><path d="M688.0463,195.6993 C688.0894,196.2565 688.1322,196.8182 688.1747,197.3846 C688.2597,198.5173 688.3436,199.6682 688.4263,200.8369 C689.0887,210.1865 689.6805,220.6751 690.2023,232.0747 C692.2897,277.6731 693.2569,337.8488 693.1338,398.0225 C693.0106,458.1962 691.7972,518.3681 689.5233,563.9591 C689.239,569.6579 688.9382,575.129 688.6209,580.3437 C688.6011,580.6696 688.5812,580.9945 688.5612,581.3185 " fill="none" style="stroke: #95DB32; stroke-width: 2.0;"/><polygon fill="#FFFFFF" points="688.5612,581.3185,696.7167,562.785,682.7432,561.9239,688.5612,581.3185" style="stroke: #95DB32; stroke-width: 1.0;"/><path d="M704.9906,581.7115 C705.299,581.2071 705.61,580.7045 705.9237,580.2038 C706.5511,579.2024 707.1892,578.2089 707.8379,577.225 C710.4327,573.2895 713.1975,569.5088 716.13,566 C720.01,561.36 724.04,563.19 727.13,558 C749.905,519.8 756.8025,470.39 757.935,430.0588 C758.2181,419.9759 758.1409,410.4605 757.8614,401.8296 C757.8265,400.7507 757.7884,399.6857 757.7475,398.6351 " fill="none" style="stroke: #9932DB; stroke-width: 2.0;"/><polygon fill="#FFFFFF" points="757.7475,398.6351,751.4928,417.8933,765.4822,417.348,757.7475,398.6351" style="stroke: #9932DB; stroke-width: 1.0;"/><path d="M794.3167,542.2367 C794.2646,542.3323 794.2122,542.4279 794.1596,542.5233 C794.0543,542.7141 793.9478,542.9044 793.8402,543.0943 C793.625,543.4739 793.4053,543.8516 793.181,544.2269 C792.7324,544.9776 792.2655,545.7192 791.7807,546.4498 C790.8109,547.9109 789.7688,549.328 788.6555,550.6858 C786.4289,553.4014 783.9175,555.88 781.13,558 C764.27,570.83 751.07,553.27 734.13,566 C730.3863,568.8138 727.002,572.1063 723.9114,575.7155 C722.3661,577.5201 720.8942,579.4039 719.4874,581.3466 C719.3995,581.468 719.3118,581.5897 719.2244,581.7115 " fill="none" style="stroke: #DB7D32; stroke-width: 2.0;"/><polygon fill="#FFFFFF" points="719.2244,581.7115,735.9864,570.3521,724.6101,562.1925,719.2244,581.7115" style="stroke: #DB7D32; stroke-width: 1.0;"/><path d="M92.2049,398.1279 C92.1921,398.3543 92.1793,398.5809 92.1666,398.8077 C92.1412,399.2614 92.116,399.716 92.0909,400.1714 C91.6906,407.4575 91.345,414.94 91.13,422 C88.595,505.2 89.525,598.675 91.1238,672.1563 C91.5234,690.5266 91.9649,707.6473 92.4045,723.0454 C92.5144,726.8949 92.6242,730.6368 92.7332,734.2636 C92.7877,736.0771 92.8419,737.8617 92.8959,739.6167 C92.9094,740.0554 92.9229,740.4923 92.9364,740.9273 " fill="none" style="stroke: #6B32DB; stroke-width: 2.0;"/><polygon fill="#FFFFFF" points="92.9364,740.9273,99.3453,721.7199,85.352,722.153,92.9364,740.9273" style="stroke: #6B32DB; stroke-width: 1.0;"/><path d="M679.13,686.9706 C679.13,687.4625 679.13,687.9579 679.13,688.4567 C679.13,690.4518 679.13,692.5014 679.13,694.6027 C679.13,698.8052 679.13,703.2141 679.13,707.8066 C679.13,744.5463 679.13,793.0313 679.13,841.515 C679.13,889.9988 679.13,938.4813 679.13,975.2159 C679.13,975.7899 679.13,976.361 679.13,976.9292 C679.13,977.2133 679.13,977.4967 679.13,977.7793 " fill="none" style="stroke: #324CDB; stroke-width: 2.0;"/><polygon fill="#FFFFFF" points="679.13,977.7793,686.13,958.7793,672.13,958.7793,679.13,977.7793" style="stroke: #324CDB; stroke-width: 1.0;"/><path d="M670.9661,638.2295 C670.5307,638.0028 670.0793,637.768 669.6124,637.5253 C667.7448,636.5544 665.6284,635.4569 663.2866,634.2467 C653.9194,629.4059 640.9463,622.7619 625.8675,615.2037 C595.71,600.0875 557.13,581.315 522.13,566 C351.7,491.42 276.16,531.74 132.13,414 C129.2813,411.6713 126.5798,409.0633 124.0319,406.2779 C122.7579,404.8852 121.5223,403.4481 120.3258,401.9794 C119.7275,401.245 119.139,400.5028 118.5604,399.7542 C118.2711,399.3799 117.9843,399.004 117.7,398.6268 C117.5578,398.4382 117.4162,398.2492 117.2753,398.0599 " fill="none" style="stroke: #6DDB32; stroke-width: 2.0;"/><polygon fill="#FFFFFF" points="117.2753,398.0599,123.0071,417.4802,134.2366,409.1195,117.2753,398.0599" style="stroke: #6DDB32; stroke-width: 1.0;"/><path d="M86.9952,784.5557 C86.8425,784.2058 86.688,783.8511 86.5318,783.4918 C81.533,771.9924 74.7423,755.6802 67.212,735.6759 C52.1516,695.6675 34.1331,640.8913 21.5763,580.315 C-3.5375,459.1625 -6.805,314.81 79.13,219 C101.38,194.195 249.465,177.88 393.0575,167.7362 C464.8538,162.6644 535.5269,159.1353 588.7859,156.8592 C615.4155,155.7212 637.6915,154.8964 653.5776,154.3486 C657.5492,154.2116 661.1213,154.092 664.2623,153.9891 C665.8328,153.9377 667.2955,153.8904 668.6464,153.8473 C669.3219,153.8257 669.9694,153.8051 670.5885,153.7856 C670.898,153.7759 671.2004,153.7664 671.4957,153.7571 " fill="none" style="stroke: #B632DB; stroke-width: 2.0;"/><polygon fill="#FFFFFF" points="671.4957,153.7571,652.2858,147.3556,652.7242,161.3487,671.4957,153.7571" style="stroke: #B632DB; stroke-width: 1.0;"/><path d="M116.6633,686.3156 C116.6903,686.4398 116.7175,686.5639 116.7451,686.6881 C117.6261,690.6605 118.784,694.618 120.292,698.4109 C123.3081,705.9969 127.725,712.925 134.13,718 C149.99,730.56 478.69,720.4 498.13,726 C529.475,735.025 560.9725,753.6975 584.88,770.335 C596.8338,778.6538 606.89,786.4638 614.0809,792.3047 C614.9798,793.0348 615.8339,793.7342 616.6413,794.3999 C617.0451,794.7328 617.4371,795.0572 617.8173,795.3729 C617.9123,795.4518 618.0066,795.5302 618.1001,795.608 " fill="none" style="stroke: #32B8DB; stroke-width: 1.0; stroke-dasharray: 7.0,7.0;"/><polygon fill="#32B8DB" points="618.1001,795.608,613.7396,786.7771,614.2564,792.4103,608.6232,792.9271,618.1001,795.608" style="stroke: #32B8DB; stroke-width: 1.0;"/><path d="M809.7723,542.1767 C810.0542,542.5477 810.3394,542.9165 810.628,543.2828 C815.245,549.1444 820.72,554.3825 827.13,558 C840.64,565.62 1095.33,554.88 1106.13,566 C1153.21,614.45 1149.56,666.26 1106.13,718 C1037.05,800.31 632.52,802.47 626.21,802.5 " fill="none" style="stroke: #DBC032; stroke-width: 1.0; stroke-dasharray: 7.0,7.0;"/><polygon fill="#DBC032" points="626.21,802.5,635.2289,806.4572,631.2099,802.4762,635.1909,798.4573,626.21,802.5" style="stroke: #DBC032; stroke-width: 1.0;"/><path d="M781.7245,493.0715 C781.5517,492.96 781.3764,492.8469 781.1988,492.7322 C780.4884,492.2737 779.7398,491.7905 778.9545,491.2837 C772.6723,487.2289 764.0438,481.6598 753.8506,475.0808 C733.4644,461.9228 706.82,444.7256 680.1725,427.5263 C653.525,410.3269 626.8744,393.1253 606.4756,379.9586 C596.2762,373.3752 587.6398,367.8006 581.3483,363.7393 C580.5618,363.2316 579.812,362.7476 579.1004,362.2882 C578.9225,362.1734 578.747,362.0601 578.5738,361.9483 C578.4873,361.8924 578.4013,361.8369 578.316,361.7818 " fill="none" style="stroke: #A832DB; stroke-width: 1.0; stroke-dasharray: 7.0,7.0;"/><polygon fill="#A832DB" points="578.316,361.7818,583.708,370.0236,582.5167,364.4936,588.0467,363.3024,578.316,361.7818" style="stroke: #A832DB; stroke-width: 1.0;"/><path d="M671.1033,629.2616 C670.2243,627.7769 669.2903,626.1891 668.3105,624.5096 C666.3508,621.1505 664.2075,617.4244 661.9525,613.4225 C652.9325,597.415 642.125,576.995 634.13,558 C616.19,515.375 600.4075,465.895 589.0038,426.6338 C586.1528,416.8184 583.5755,407.6418 581.3067,399.3706 C580.1722,395.235 579.1149,391.3258 578.139,387.6763 " fill="none" style="stroke: #3D32DB; stroke-width: 1.0; stroke-dasharray: 7.0,7.0;"/><polygon fill="#3D32DB" points="578.139,387.6763,576.5997,397.4041,579.4306,392.5065,584.3282,395.3374,578.139,387.6763" style="stroke: #3D32DB; stroke-width: 1.0;"/><path d="M103.1894,741.9618 C103.2991,741.7249 103.4102,741.4888 103.5226,741.2533 C104.422,739.3697 105.4069,737.5328 106.4848,735.7589 C108.6406,732.2111 111.1687,728.915 114.13,726 C119.82,720.4 123.7,722.89 131.63,722 C170.17,717.65 442.1,717.65 480.63,722 C515.73,725.96 550.42,744.655 577.12,763.1413 C590.47,772.3844 601.8225,781.5753 610.23,788.8461 C612.3319,790.6638 614.2497,792.3615 615.9686,793.91 C616.3984,794.2971 616.8157,794.6749 617.2203,795.0429 C617.4226,795.2269 617.6218,795.4085 617.8178,795.5875 C617.9158,795.6771 618.0129,795.766 618.1093,795.8542 " fill="none" style="stroke: #DB32B3; stroke-width: 1.0; stroke-dasharray: 7.0,7.0;"/><polygon fill="#DB32B3" points="618.1093,795.8542,614.1739,786.8258,614.4221,792.4772,608.7707,792.7254,618.1093,795.8542" style="stroke: #DB32B3; stroke-width: 1.0;"/></g></svg>